<svg xmlns="http://www.w3.org/2000/svg" width="32" height="32" fill="currentColor"><path fill="url(#icon-b87cdc648d1e3f7a__icon-c3505c6599b2c1b0__a)" d="M3 6.5A3.5 3.5 0 0 1 6.5 3h19A3.5 3.5 0 0 1 29 6.5v19a3.5 3.5 0 0 1-3.5 3.5h-19A3.5 3.5 0 0 1 3 25.5v-19Z"/><path fill="url(#icon-c53b9c66c47cf336__icon-19d0450ff4823e04__b)" fill-opacity=".2" d="M3 6.5A3.5 3.5 0 0 1 6.5 3h19A3.5 3.5 0 0 1 29 6.5v19a3.5 3.5 0 0 1-3.5 3.5h-19A3.5 3.5 0 0 1 3 25.5v-19Z"/><path fill="url(#icon-607863fd2a0d91ce__icon-95f3b1951768ebc6__c)" fill-rule="evenodd" d="M25.5 4h-19A2.5 2.5 0 0 0 4 6.5v19A2.5 2.5 0 0 0 6.5 28h19a2.5 2.5 0 0 0 2.5-2.5v-19A2.5 2.5 0 0 0 25.5 4Zm-19-1A3.5 3.5 0 0 0 3 6.5v19A3.5 3.5 0 0 0 6.5 29h19a3.5 3.5 0 0 0 3.5-3.5v-19A3.5 3.5 0 0 0 25.5 3h-19Z" clip-rule="evenodd"/><path fill="url(#icon-8e983adbe80d54d3__icon-6e0a97421577bede__d)" d="M15 11.5a2.5 2.5 0 0 1-2 2.45V16h4.5a1.5 1.5 0 0 0 1.5-1.5v-.55a2.5 2.5 0 1 1 1 0v.55a2.5 2.5 0 0 1-2.5 2.5H13v1.05a2.5 2.5 0 1 1-2.294.709v-.056h.056A2.495 2.495 0 0 1 12 18.05v-4.1a2.5 2.5 0 0 1-1.294-4.191v-.023h.022A2.5 2.5 0 0 1 15 11.5Z"/><defs><linearGradient id="icon-b87cdc648d1e3f7a__icon-c3505c6599b2c1b0__a" x1="10.222" x2="13.511" y1="3" y2="29.311" gradientUnits="userSpaceOnUse"><stop stop-color="#fff"/><stop offset="1" stop-color="#EBEBEB"/></linearGradient><linearGradient id="icon-607863fd2a0d91ce__icon-95f3b1951768ebc6__c" x1="11.396" x2="14.897" y1="3" y2="29.256" gradientUnits="userSpaceOnUse"><stop stop-color="#BBB"/><stop offset="1" stop-color="#888"/></linearGradient><linearGradient id="icon-8e983adbe80d54d3__icon-6e0a97421577bede__d" x1="10" x2="23.835" y1="9" y2="20.859" gradientUnits="userSpaceOnUse"><stop stop-color="#7751B8"/><stop offset="1" stop-color="#5A409C"/></linearGradient><radialGradient id="icon-c53b9c66c47cf336__icon-19d0450ff4823e04__b" cx="0" cy="0" r="1" gradientTransform="rotate(56.31 -3.476 15.448) scale(24.7381 21.408)" gradientUnits="userSpaceOnUse"><stop offset=".177" stop-color="#fff"/><stop offset="1" stop-color="#B8B8B8"/></radialGradient></defs></svg>