<svg xmlns="http://www.w3.org/2000/svg" width="32" height="32" fill="currentColor"><path fill="url(#icon-b3818f9ea456d82f__icon-2ec8c4355d2947a5__a)" d="M5 5.5A3.5 3.5 0 0 1 8.5 2h15A3.5 3.5 0 0 1 27 5.5v21a3.5 3.5 0 0 1-3.5 3.5h-15A3.5 3.5 0 0 1 5 26.5v-21Z"/><path fill="url(#icon-6fbd70a84edec8ca__icon-33c42eeba3c5d139__b)" fill-opacity=".2" d="M5 5.5A3.5 3.5 0 0 1 8.5 2h15A3.5 3.5 0 0 1 27 5.5v21a3.5 3.5 0 0 1-3.5 3.5h-15A3.5 3.5 0 0 1 5 26.5v-21Z"/><path fill="url(#icon-22cd906553e3a854__icon-7446dfd3067dd3ab__c)" fill-rule="evenodd" d="M23.5 3h-15A2.5 2.5 0 0 0 6 5.5v21A2.5 2.5 0 0 0 8.5 29h15a2.5 2.5 0 0 0 2.5-2.5v-21A2.5 2.5 0 0 0 23.5 3Zm-15-1A3.5 3.5 0 0 0 5 5.5v21A3.5 3.5 0 0 0 8.5 30h15a3.5 3.5 0 0 0 3.5-3.5v-21A3.5 3.5 0 0 0 23.5 2h-15Z" clip-rule="evenodd"/><path fill="url(#icon-dc2f9076fbf31a7a__icon-4b2c5133fe6dd740__d)" d="M23 22a2 2 0 0 1-2 2H11a2 2 0 0 1-2-2v-6.4a2 2 0 0 1 .674-1.497l5-4.428a2 2 0 0 1 2.653 0l5 4.428A2 2 0 0 1 23 15.6V22Z"/><path fill="#B4CDF8" d="M13 16a1 1 0 1 1-2 0 1 1 0 0 1 2 0ZM17 16a1 1 0 1 1-2 0 1 1 0 0 1 2 0ZM20 17a1 1 0 1 0 0-2 1 1 0 0 0 0 2ZM17 20a1 1 0 1 1-2 0 1 1 0 0 1 2 0ZM12 21a1 1 0 1 0 0-2 1 1 0 0 0 0 2ZM21 20a1 1 0 1 1-2 0 1 1 0 0 1 2 0Z"/><defs><linearGradient id="icon-b3818f9ea456d82f__icon-2ec8c4355d2947a5__a" x1="11.111" x2="15.576" y1="2" y2="30.067" gradientUnits="userSpaceOnUse"><stop stop-color="#fff"/><stop offset="1" stop-color="#EBEBEB"/></linearGradient><linearGradient id="icon-22cd906553e3a854__icon-7446dfd3067dd3ab__c" x1="12.104" x2="16.851" y1="2" y2="29.972" gradientUnits="userSpaceOnUse"><stop stop-color="#BBB"/><stop offset="1" stop-color="#888"/></linearGradient><linearGradient id="icon-dc2f9076fbf31a7a__icon-4b2c5133fe6dd740__d" x1="9" x2="23.804" y1="9.172" y2="23.149" gradientUnits="userSpaceOnUse"><stop stop-color="#3477EA"/><stop offset="1" stop-color="#1D53A4"/></linearGradient><radialGradient id="icon-6fbd70a84edec8ca__icon-33c42eeba3c5d139__b" cx="0" cy="0" r="1" gradientTransform="matrix(11.61113 22.16669 -17.08352 8.94852 12.028 9.292)" gradientUnits="userSpaceOnUse"><stop offset=".177" stop-color="#fff"/><stop offset="1" stop-color="#B8B8B8"/></radialGradient></defs></svg>