<svg xmlns="http://www.w3.org/2000/svg" width="32" height="32" fill="currentColor"><path fill="url(#icon-4b71bf9f96add855__icon-506b5c0a19521925__a)" d="M29 16c0 7.18-5.82 13-13 13S3 23.18 3 16 8.82 3 16 3s13 5.82 13 13Z"/><path fill="url(#icon-736f2fb09bd27e32__icon-ea39195845398ab2__b)" fill-opacity=".2" d="M29 16c0 7.18-5.82 13-13 13S3 23.18 3 16 8.82 3 16 3s13 5.82 13 13Z"/><path fill="url(#icon-f359ec6ca7fbe353__icon-90febfd10340b6ea__c)" fill-rule="evenodd" d="M16 28c6.627 0 12-5.373 12-12S22.627 4 16 4 4 9.373 4 16s5.373 12 12 12Zm0 1c7.18 0 13-5.82 13-13S23.18 3 16 3 3 8.82 3 16s5.82 13 13 13Z" clip-rule="evenodd"/><path fill="url(#icon-86c5b9ff6cbbf1d5__icon-916f2f85583fd111__d)" d="M19.23 10.026a.75.75 0 1 0-1.39-.564l-5.07 12.512a.75.75 0 1 0 1.39.563l5.07-12.511Z"/><path fill="url(#icon-9d3d0370c848faed__icon-e95457cfa28aabae__e)" d="M11.53 12.22a.75.75 0 0 1 0 1.06L8.81 16l2.72 2.72a.75.75 0 1 1-1.06 1.06l-3.25-3.25a.75.75 0 0 1 0-1.06l3.25-3.25a.75.75 0 0 1 1.06 0Z"/><path fill="url(#icon-9593a6a38d950979__icon-e385e9e4d1487285__f)" d="M20.5 19.78a.75.75 0 0 1 0-1.06L23.22 16l-2.72-2.72a.75.75 0 1 1 1.062-1.06l3.25 3.25a.75.75 0 0 1 0 1.06l-3.25 3.25a.75.75 0 0 1-1.061 0Z"/><defs><linearGradient id="icon-4b71bf9f96add855__icon-506b5c0a19521925__a" x1="10.222" x2="13.511" y1="3" y2="29.311" gradientUnits="userSpaceOnUse"><stop stop-color="#fff"/><stop offset="1" stop-color="#EBEBEB"/></linearGradient><linearGradient id="icon-f359ec6ca7fbe353__icon-90febfd10340b6ea__c" x1="11.396" x2="14.897" y1="3" y2="29.256" gradientUnits="userSpaceOnUse"><stop stop-color="#BBB"/><stop offset="1" stop-color="#888"/></linearGradient><linearGradient id="icon-86c5b9ff6cbbf1d5__icon-916f2f85583fd111__d" x1="7" x2="20.578" y1="8.994" y2="26.466" gradientUnits="userSpaceOnUse"><stop stop-color="#4BA446"/><stop offset="1" stop-color="#3F7D35"/></linearGradient><linearGradient id="icon-9d3d0370c848faed__icon-e95457cfa28aabae__e" x1="7" x2="20.578" y1="8.994" y2="26.467" gradientUnits="userSpaceOnUse"><stop stop-color="#4BA446"/><stop offset="1" stop-color="#3F7D35"/></linearGradient><linearGradient id="icon-9593a6a38d950979__icon-e385e9e4d1487285__f" x1="7" x2="20.578" y1="8.994" y2="26.467" gradientUnits="userSpaceOnUse"><stop stop-color="#4BA446"/><stop offset="1" stop-color="#3F7D35"/></linearGradient><radialGradient id="icon-736f2fb09bd27e32__icon-ea39195845398ab2__b" cx="0" cy="0" r="1" gradientTransform="rotate(56.31 -3.476 15.448) scale(24.7381 21.408)" gradientUnits="userSpaceOnUse"><stop offset=".177" stop-color="#fff"/><stop offset="1" stop-color="#B8B8B8"/></radialGradient></defs></svg>