<svg width="32" height="32" fill="none" xmlns="http://www.w3.org/2000/svg"><rect x="5" y="2" width="22" height="28" rx="3.5" fill="url(#icon-42b0d49dca442a20__paint0_linear_41451_45747)"/><rect x="5" y="2" width="22" height="28" rx="3.5" fill="url(#icon-6a83c0d88f00354b__paint1_radial_41451_45747)" fill-opacity="0.2"/><path d="M23.5 3C24.8807 3 26 4.11929 26 5.5V26.5C26 27.8807 24.8807 29 23.5 29H8.5C7.11929 29 6 27.8807 6 26.5V5.5C6 4.11929 7.11929 3 8.5 3H23.5ZM8.5 2C6.567 2 5 3.567 5 5.5V26.5C5 28.433 6.567 30 8.5 30H23.5C25.433 30 27 28.433 27 26.5V5.5C27 3.567 25.433 2 23.5 2H8.5Z" fill="url(#icon-722e5d1c7f6e6cb5__paint2_linear_41451_45747)"/><path d="M13 15C13 11.6863 15.6863 9 19 9H19.5C19.7761 9 20 8.77614 20 8.5C20 8.22386 19.7761 8 19.5 8H19C15.134 8 12 11.134 12 15V16C12 16.5523 11.5523 17 11 17H9.5C9.22386 17 9 17.2239 9 17.5C9 17.7761 9.22386 18 9.5 18H11C12.1046 18 13 17.1046 13 16V15Z" fill="url(#icon-ea5212aa566ba313__paint3_linear_41451_45747)"/><path d="M19.5 12C17.567 12 16 13.567 16 15.5V16.5C16 17.0432 15.9038 17.5639 15.7274 18.046C15.5434 18.3283 15.3902 18.6326 15.2726 18.954C14.4697 20.1858 13.0799 21 11.5 21H9.5C9.22386 21 9 20.7761 9 20.5C9 20.2239 9.22386 20 9.5 20H11.5C13.433 20 15 18.433 15 16.5V15.5C15 13.0147 17.0147 11 19.5 11H22.5C22.7761 11 23 11.2239 23 11.5C23 11.7761 22.7761 12 22.5 12H19.5Z" fill="url(#icon-e495685f63facffc__paint4_linear_41451_45747)"/><path d="M15.2678 22.0329C14.3276 22.6446 13.2053 23 12 23H11.5C11.2239 23 11 23.2239 11 23.5C11 23.7761 11.2239 24 11.5 24H12C13.3646 24 14.638 23.6095 15.7146 22.9342C15.5338 22.6536 15.3833 22.3516 15.2678 22.0329Z" fill="url(#icon-4152baa7e8246db8__paint5_linear_41451_45747)"/><path d="M18 16.2561C18.3184 16.1435 18.6533 16.0658 19 16.0275V16C19 15.4477 19.4477 15 20 15H22.5C22.7761 15 23 14.7761 23 14.5C23 14.2239 22.7761 14 22.5 14H20C18.8954 14 18 14.8954 18 16V16.2561Z" fill="url(#icon-f4cc3d4b5fc37307__paint6_linear_41451_45747)"/><path d="M16.051 20.155C17.109 19.866 17.736 18.779 17.458 17.718L17.449 17.686C17.695 17.507 17.966 17.36 18.255 17.25C18.988 17.875 20.069 17.884 20.813 17.276C21.117 17.4 21.4 17.564 21.654 17.763C21.501 18.711 22.049 19.642 22.956 19.964C22.985 20.146 23 20.332 23 20.522C23 20.643 22.994 20.762 22.982 20.88L22.949 20.889C21.892 21.178 21.264 22.265 21.542 23.326L21.551 23.359C21.305 23.537 21.034 23.684 20.745 23.794C20.012 23.169 18.931 23.16 18.188 23.768C17.883 23.644 17.6 23.48 17.346 23.28C17.499 22.333 16.951 21.403 16.044 21.08C16.015 20.898 16 20.712 16 20.522C16 20.401 16.006 20.282 16.018 20.164L16.051 20.155ZM18.75 20.522C18.75 20.936 19.086 21.272 19.5 21.272C19.914 21.272 20.25 20.936 20.25 20.522C20.25 20.108 19.914 19.772 19.5 19.772C19.086 19.772 18.75 20.108 18.75 20.522Z" fill="url(#icon-cb02db2dc9b8952f__paint7_linear_41451_45747)"/><defs><linearGradient id="icon-42b0d49dca442a20__paint0_linear_41451_45747" x1="11.1111" y1="2" x2="15.5764" y2="30.0674" gradientUnits="userSpaceOnUse"><stop stop-color="white"/><stop offset="1" stop-color="#EBEBEB"/></linearGradient><radialGradient id="icon-6a83c0d88f00354b__paint1_radial_41451_45747" cx="0" cy="0" r="1" gradientUnits="userSpaceOnUse" gradientTransform="translate(12.0278 9.29167) rotate(62.354) scale(25.0236 19.2853)"><stop offset="0.177083" stop-color="white"/><stop offset="1" stop-color="#B8B8B8"/></radialGradient><linearGradient id="icon-722e5d1c7f6e6cb5__paint2_linear_41451_45747" x1="12.1042" y1="2" x2="16.851" y2="29.9723" gradientUnits="userSpaceOnUse"><stop stop-color="#BBBBBB"/><stop offset="1" stop-color="#888888"/></linearGradient><linearGradient id="icon-ea5212aa566ba313__paint3_linear_41451_45747" x1="9" y1="8" x2="24.8584" y2="21.8761" gradientUnits="userSpaceOnUse"><stop stop-color="#E03F8F"/><stop offset="1" stop-color="#BD1E7B"/></linearGradient><linearGradient id="icon-e495685f63facffc__paint4_linear_41451_45747" x1="9" y1="8" x2="24.8584" y2="21.8761" gradientUnits="userSpaceOnUse"><stop stop-color="#E03F8F"/><stop offset="1" stop-color="#BD1E7B"/></linearGradient><linearGradient id="icon-4152baa7e8246db8__paint5_linear_41451_45747" x1="9" y1="8" x2="24.8584" y2="21.8761" gradientUnits="userSpaceOnUse"><stop stop-color="#E03F8F"/><stop offset="1" stop-color="#BD1E7B"/></linearGradient><linearGradient id="icon-f4cc3d4b5fc37307__paint6_linear_41451_45747" x1="9" y1="8" x2="24.8584" y2="21.8761" gradientUnits="userSpaceOnUse"><stop stop-color="#E03F8F"/><stop offset="1" stop-color="#BD1E7B"/></linearGradient><linearGradient id="icon-cb02db2dc9b8952f__paint7_linear_41451_45747" x1="9" y1="8" x2="24.8584" y2="21.8761" gradientUnits="userSpaceOnUse"><stop stop-color="#E03F8F"/><stop offset="1" stop-color="#BD1E7B"/></linearGradient></defs></svg>