<svg xmlns="http://www.w3.org/2000/svg" width="32" height="32" fill="currentColor"><path fill="url(#icon-d81a16b204422c87__icon-b32629673eef61f9__a)" d="M3 6.5A3.5 3.5 0 0 1 6.5 3h19A3.5 3.5 0 0 1 29 6.5v19a3.5 3.5 0 0 1-3.5 3.5h-19A3.5 3.5 0 0 1 3 25.5v-19Z"/><path fill="url(#icon-4461a35ac4c71a75__icon-8630d1d375f7e896__b)" fill-opacity=".2" d="M3 6.5A3.5 3.5 0 0 1 6.5 3h19A3.5 3.5 0 0 1 29 6.5v19a3.5 3.5 0 0 1-3.5 3.5h-19A3.5 3.5 0 0 1 3 25.5v-19Z"/><path fill="url(#icon-99a6dda586254aa9__icon-82bc2c62690ac6ec__c)" fill-rule="evenodd" d="M25.5 4h-19A2.5 2.5 0 0 0 4 6.5v19A2.5 2.5 0 0 0 6.5 28h19a2.5 2.5 0 0 0 2.5-2.5v-19A2.5 2.5 0 0 0 25.5 4Zm-19-1A3.5 3.5 0 0 0 3 6.5v19A3.5 3.5 0 0 0 6.5 29h19a3.5 3.5 0 0 0 3.5-3.5v-19A3.5 3.5 0 0 0 25.5 3h-19Z" clip-rule="evenodd"/><path fill="url(#icon-0e75073d1e5f0811__icon-a436ccb2160997f2__d)" fill-rule="evenodd" d="M13.25 10h-.75a.5.5 0 1 1 0-1h7a.5.5 0 0 1 0 1h-.75v4.747c0 .412.102.818.296 1.18l2.606 4.865A1.5 1.5 0 0 1 20.33 23h-8.66a1.5 1.5 0 0 1-1.322-2.208l2.606-4.864a2.5 2.5 0 0 0 .296-1.181V10Zm0 7.5v-.008l-.004.008h.004Zm6.04 1h-6.58l-1.48 2.764a.5.5 0 0 0 .44.736h8.66a.5.5 0 0 0 .44-.736L19.29 18.5Z" clip-rule="evenodd"/><defs><linearGradient id="icon-d81a16b204422c87__icon-b32629673eef61f9__a" x1="10.222" x2="13.511" y1="3" y2="29.311" gradientUnits="userSpaceOnUse"><stop stop-color="#fff"/><stop offset="1" stop-color="#EBEBEB"/></linearGradient><linearGradient id="icon-99a6dda586254aa9__icon-82bc2c62690ac6ec__c" x1="11.396" x2="14.897" y1="3" y2="29.256" gradientUnits="userSpaceOnUse"><stop stop-color="#BBB"/><stop offset="1" stop-color="#888"/></linearGradient><linearGradient id="icon-0e75073d1e5f0811__icon-a436ccb2160997f2__d" x1="10.168" x2="23.938" y1="9" y2="20.472" gradientUnits="userSpaceOnUse"><stop stop-color="#4BA446"/><stop offset="1" stop-color="#3F7D35"/></linearGradient><radialGradient id="icon-4461a35ac4c71a75__icon-8630d1d375f7e896__b" cx="0" cy="0" r="1" gradientTransform="rotate(56.31 -3.476 15.448) scale(24.7381 21.408)" gradientUnits="userSpaceOnUse"><stop offset=".177" stop-color="#fff"/><stop offset="1" stop-color="#B8B8B8"/></radialGradient></defs></svg>