<svg xmlns="http://www.w3.org/2000/svg" width="20" height="20" fill="currentColor"><path fill="url(#icon-dd1518364dd75670__icon-3aa913506036f785__a)" d="M5 5a2 2 0 1 1 4 0 2 2 0 0 1-4 0Zm2-1a1 1 0 1 0 0 2 1 1 0 0 0 0-2Zm4.779 2.584a2 2 0 1 1 2.442-3.168 2 2 0 0 1-2.442 3.168ZM13 4a1 1 0 1 0 0 2 1 1 0 0 0 0-2ZM4.5 8h2.67c-.11.313-.17.65-.17 1H4.5a.5.5 0 0 0-.5.5c0 .817.325 1.423.838 1.835.236.19.519.343.839.454a2.501 2.501 0 0 0-.532.869 3.733 3.733 0 0 1-.933-.543C3.46 11.51 3 10.616 3 9.5A1.5 1.5 0 0 1 4.5 8Zm3.768 0a2 2 0 1 0 3.466 2 2 2 0 0 0-3.466-2Zm1.508.025A1.003 1.003 0 0 1 11 9a1 1 0 1 1-1.224-.975Zm5.386 3.31c-.236.19-.519.343-.839.454a2.5 2.5 0 0 1 .531.869c.34-.139.655-.32.934-.543C16.54 11.51 17 10.616 17 9.5A1.5 1.5 0 0 0 15.5 8h-2.67c.11.313.17.65.17 1h2.5a.5.5 0 0 1 .5.5c0 .817-.325 1.423-.838 1.835ZM12.5 12a1.5 1.5 0 0 1 1.5 1.5c0 1.116-.459 2.01-1.212 2.615-.741.595-1.735.885-2.788.885-1.053 0-2.047-.29-2.788-.885C6.46 15.51 6 14.616 6 13.5A1.496 1.496 0 0 1 7.5 12h5Zm0 1h-5a.5.5 0 0 0-.5.5c0 .817.325 1.423.838 1.835C8.364 15.757 9.12 16 10 16c.88 0 1.636-.243 2.162-.665.513-.412.838-1.018.838-1.835a.5.5 0 0 0-.5-.5Z"/><defs><linearGradient id="icon-dd1518364dd75670__icon-3aa913506036f785__a" x1="3" x2="17" y1="3" y2="17" gradientUnits="userSpaceOnUse"><stop stop-color="#bdbdbd"/><stop offset="1" stop-color="#bdbdbd"/></linearGradient></defs></svg>