<svg xmlns="http://www.w3.org/2000/svg" width="32" height="32" fill="currentColor"><path fill="url(#icon-51a25c74708270a7__icon-51aeb8e9cde36b08__a)" d="M27 7.5A3.5 3.5 0 0 0 23.5 4h-13A3.5 3.5 0 0 0 7 7.5v19a3.5 3.5 0 0 0 3.5 3.5H22a5 5 0 0 0 5-5V7.5Z"/><path fill="url(#icon-a2d460b079c7f2ee__icon-fee98d3ea10c1179__b)" d="M26 7.5A2.5 2.5 0 0 0 23.5 5h-13A2.5 2.5 0 0 0 8 7.5v19a2.5 2.5 0 0 0 2.5 2.5h11.25A4.25 4.25 0 0 0 26 24.75V7.5Z"/><path fill="url(#icon-262bef287cc149d6__icon-311e37ca2b3ff758__c)" fill-opacity=".2" d="M26 7.5A2.5 2.5 0 0 0 23.5 5h-13A2.5 2.5 0 0 0 8 7.5v19a2.5 2.5 0 0 0 2.5 2.5h11.25A4.25 4.25 0 0 0 26 24.75V7.5Z"/><path fill="url(#icon-7ca81d31ea321e85__icon-4d35c512d026dcdb__d)" d="M8.5 2h13A3.5 3.5 0 0 1 25 5.5v19a3.5 3.5 0 0 1-3.5 3.5h-13A3.5 3.5 0 0 1 5 24.5v-19A3.5 3.5 0 0 1 8.5 2Z"/><path fill="url(#icon-a3daa24ffdb4cec9__icon-15f100f086541c0f__e)" d="M8.5 3h13A2.5 2.5 0 0 1 24 5.5v19a2.5 2.5 0 0 1-2.5 2.5h-13A2.5 2.5 0 0 1 6 24.5v-19A2.5 2.5 0 0 1 8.5 3Z"/><path fill="url(#icon-518f8839b1e56cec__icon-279bbfa3f49429a8__f)" fill-opacity=".2" d="M8.5 3h13A2.5 2.5 0 0 1 24 5.5v19a2.5 2.5 0 0 1-2.5 2.5h-13A2.5 2.5 0 0 1 6 24.5v-19A2.5 2.5 0 0 1 8.5 3Z"/><path fill="#F5F5F5" fill-rule="evenodd" d="M19.518 29.864a1.5 1.5 0 0 0 2.561 1.06l.624-.623a1.5 1.5 0 0 0 2.558.977l1.414-1.415c.134-.133.24-.29.314-.46l.45.45c.945.946 2.561.276 2.561-1.06V22.5a1.5 1.5 0 0 0-1.5-1.5h-6.293c-1.336 0-2.005 1.616-1.06 2.56l.332.333c-.17.074-.327.18-.46.313l-1.414 1.415a1.5 1.5 0 0 0 .977 2.558l-.624.624a1.5 1.5 0 0 0-.44 1.06Z" clip-rule="evenodd"/><path fill="url(#icon-835ce49deb1136c3__icon-364964b3069c31ba__g)" d="M29 22.5a.5.5 0 0 0-.5-.5h-6.293a.5.5 0 0 0-.353.854l6.293 6.293a.5.5 0 0 0 .853-.354V22.5Z"/><path fill="url(#icon-a514e901f6a7448d__icon-d16dc2605b1fcffc__h)" d="M22.58 25.267a.5.5 0 0 0-.854-.353l-1.415 1.414a.5.5 0 1 0 .708.707l1.414-1.414a.5.5 0 0 0 .146-.354Z"/><path fill="url(#icon-4a9a4632e3c63d75__icon-ecea9508da9fd597__i)" d="M24.347 27.035a.5.5 0 0 0-.854-.353l-2.828 2.828a.5.5 0 1 0 .707.707L24.2 27.39a.5.5 0 0 0 .147-.354Z"/><path fill="url(#icon-0ed4ec6b25ba62c5__icon-9ab2c7384f3d4ff8__j)" d="M25.968 29.157a.5.5 0 0 0-.707-.708l-1.414 1.415a.5.5 0 0 0 .707.707l1.414-1.415Z"/><defs><linearGradient id="icon-51a25c74708270a7__icon-51aeb8e9cde36b08__a" x1="20.542" x2="16.045" y1="4" y2="29.943" gradientUnits="userSpaceOnUse"><stop stop-color="#BBB"/><stop offset="1" stop-color="#888"/></linearGradient><linearGradient id="icon-a2d460b079c7f2ee__icon-fee98d3ea10c1179__b" x1="21" x2="17" y1="5" y2="29" gradientUnits="userSpaceOnUse"><stop stop-color="#fff"/><stop offset="1" stop-color="#EBEBEB"/></linearGradient><linearGradient id="icon-7ca81d31ea321e85__icon-4d35c512d026dcdb__d" x1="18.542" x2="14.045" y1="2" y2="27.943" gradientUnits="userSpaceOnUse"><stop stop-color="#BBB"/><stop offset="1" stop-color="#888"/></linearGradient><linearGradient id="icon-a3daa24ffdb4cec9__icon-15f100f086541c0f__e" x1="19" x2="15" y1="3" y2="27" gradientUnits="userSpaceOnUse"><stop stop-color="#fff"/><stop offset="1" stop-color="#EBEBEB"/></linearGradient><linearGradient id="icon-835ce49deb1136c3__icon-364964b3069c31ba__g" x1="20.165" x2="28.881" y1="22" y2="30.834" gradientUnits="userSpaceOnUse"><stop stop-color="#4BA446"/><stop offset="1" stop-color="#3F7D35"/></linearGradient><linearGradient id="icon-a514e901f6a7448d__icon-d16dc2605b1fcffc__h" x1="20.165" x2="28.881" y1="22" y2="30.834" gradientUnits="userSpaceOnUse"><stop stop-color="#4BA446"/><stop offset="1" stop-color="#3F7D35"/></linearGradient><linearGradient id="icon-4a9a4632e3c63d75__icon-ecea9508da9fd597__i" x1="20.165" x2="28.881" y1="22" y2="30.834" gradientUnits="userSpaceOnUse"><stop stop-color="#4BA446"/><stop offset="1" stop-color="#3F7D35"/></linearGradient><linearGradient id="icon-0ed4ec6b25ba62c5__icon-9ab2c7384f3d4ff8__j" x1="20.165" x2="28.881" y1="22" y2="30.834" gradientUnits="userSpaceOnUse"><stop stop-color="#4BA446"/><stop offset="1" stop-color="#3F7D35"/></linearGradient><radialGradient id="icon-262bef287cc149d6__icon-311e37ca2b3ff758__c" cx="0" cy="0" r="1" gradientTransform="rotate(116.565 6.649 11.883) scale(21.2426 15.932)" gradientUnits="userSpaceOnUse"><stop offset=".177" stop-color="#fff"/><stop offset="1" stop-color="#B8B8B8"/></radialGradient><radialGradient id="icon-518f8839b1e56cec__icon-279bbfa3f49429a8__f" cx="0" cy="0" r="1" gradientTransform="rotate(116.565 6.267 10.265) scale(21.2426 15.932)" gradientUnits="userSpaceOnUse"><stop offset=".177" stop-color="#fff"/><stop offset="1" stop-color="#B8B8B8"/></radialGradient></defs></svg>