<svg xmlns="http://www.w3.org/2000/svg" width="32" height="32" fill="currentColor"><path fill="url(#icon-0d74324f6e1cd03f__icon-d0569d256ec94e89__a)" d="M3 6.5A3.5 3.5 0 0 1 6.5 3h19A3.5 3.5 0 0 1 29 6.5v19a3.5 3.5 0 0 1-3.5 3.5h-19A3.5 3.5 0 0 1 3 25.5v-19Z"/><path fill="url(#icon-1a2f4cca855cf59e__icon-2a0949cbac09ebe5__b)" fill-opacity=".2" d="M3 6.5A3.5 3.5 0 0 1 6.5 3h19A3.5 3.5 0 0 1 29 6.5v19a3.5 3.5 0 0 1-3.5 3.5h-19A3.5 3.5 0 0 1 3 25.5v-19Z"/><path fill="url(#icon-f729b6c7c356597c__icon-d9fab9b40d9ce5c4__c)" fill-rule="evenodd" d="M25.5 4h-19A2.5 2.5 0 0 0 4 6.5v19A2.5 2.5 0 0 0 6.5 28h19a2.5 2.5 0 0 0 2.5-2.5v-19A2.5 2.5 0 0 0 25.5 4Zm-19-1A3.5 3.5 0 0 0 3 6.5v19A3.5 3.5 0 0 0 6.5 29h19a3.5 3.5 0 0 0 3.5-3.5v-19A3.5 3.5 0 0 0 25.5 3h-19Z" clip-rule="evenodd"/><path fill="url(#icon-03ddd3cb2fa62647__icon-23636e124b216194__d)" d="M16 14c1.475 0 2.857-.238 3.907-.657.395-.158.77-.353 1.093-.592V19.5c0 1.425-2.149 2.5-5 2.5s-5-1.075-5-2.5v-6.75c.322.24.698.435 1.093.593 1.05.42 2.432.657 3.907.657Z"/><path fill="url(#icon-ce584e74383578ff__icon-2e9a18ec5eb4f326__e)" d="M11 11c0 1.105 2.239 2 5 2s5-.895 5-2l-.001-.043C20.942 9.872 18.726 9 16 9c-2.071 0-3.848.504-4.607 1.222-.24.226-.378.475-.392.735A.878.878 0 0 0 11 11Z"/><path fill="#F5F5F5" fill-rule="evenodd" d="M21.518 29.864a1.5 1.5 0 0 0 2.561 1.06l.624-.623a1.5 1.5 0 0 0 2.558.977l1.414-1.415c.134-.133.24-.29.314-.46l.45.45c.945.946 2.561.276 2.561-1.06V22.5a1.5 1.5 0 0 0-1.5-1.5h-6.293c-1.336 0-2.005 1.616-1.06 2.56l.332.333c-.17.074-.327.18-.46.313l-1.414 1.415a1.5 1.5 0 0 0 .977 2.558l-.624.624a1.5 1.5 0 0 0-.44 1.06Z" clip-rule="evenodd"/><path fill="url(#icon-afbd521bc35a1f14__icon-a0e73d77eb202691__f)" d="M31 22.5a.5.5 0 0 0-.5-.5h-6.293a.5.5 0 0 0-.353.854l6.293 6.293a.5.5 0 0 0 .853-.354V22.5Z"/><path fill="url(#icon-76c1b146c24e35d5__icon-94030103b5450052__g)" d="M24.58 25.267a.5.5 0 0 0-.854-.353l-1.415 1.414a.5.5 0 1 0 .708.707l1.414-1.414a.5.5 0 0 0 .146-.354Z"/><path fill="url(#icon-28ea74e6800fe806__icon-7b562c9c08e4e7ab__h)" d="M26.347 27.035a.5.5 0 0 0-.854-.353l-2.828 2.828a.5.5 0 1 0 .707.707L26.2 27.39a.5.5 0 0 0 .147-.354Z"/><path fill="url(#icon-f7194c506bb699a8__icon-554b5a1694ff8659__i)" d="M27.968 29.157a.5.5 0 0 0-.707-.708l-1.414 1.415a.5.5 0 0 0 .707.707l1.414-1.415Z"/><defs><linearGradient id="icon-0d74324f6e1cd03f__icon-d0569d256ec94e89__a" x1="10.222" x2="13.511" y1="3" y2="29.311" gradientUnits="userSpaceOnUse"><stop stop-color="#fff"/><stop offset="1" stop-color="#EBEBEB"/></linearGradient><linearGradient id="icon-f729b6c7c356597c__icon-d9fab9b40d9ce5c4__c" x1="11.396" x2="14.897" y1="3" y2="29.256" gradientUnits="userSpaceOnUse"><stop stop-color="#BBB"/><stop offset="1" stop-color="#888"/></linearGradient><linearGradient id="icon-03ddd3cb2fa62647__icon-23636e124b216194__d" x1="11" x2="23.565" y1="9" y2="18.665" gradientUnits="userSpaceOnUse"><stop stop-color="#008EE6"/><stop offset="1" stop-color="#006094"/></linearGradient><linearGradient id="icon-ce584e74383578ff__icon-2e9a18ec5eb4f326__e" x1="11" x2="23.565" y1="9" y2="18.665" gradientUnits="userSpaceOnUse"><stop stop-color="#008EE6"/><stop offset="1" stop-color="#006094"/></linearGradient><linearGradient id="icon-afbd521bc35a1f14__icon-a0e73d77eb202691__f" x1="22.165" x2="30.881" y1="22" y2="30.834" gradientUnits="userSpaceOnUse"><stop stop-color="#008EE6"/><stop offset="1" stop-color="#006094"/></linearGradient><linearGradient id="icon-76c1b146c24e35d5__icon-94030103b5450052__g" x1="22.165" x2="30.881" y1="22" y2="30.834" gradientUnits="userSpaceOnUse"><stop stop-color="#008EE6"/><stop offset="1" stop-color="#006094"/></linearGradient><linearGradient id="icon-28ea74e6800fe806__icon-7b562c9c08e4e7ab__h" x1="22.165" x2="30.881" y1="22" y2="30.834" gradientUnits="userSpaceOnUse"><stop stop-color="#008EE6"/><stop offset="1" stop-color="#006094"/></linearGradient><linearGradient id="icon-f7194c506bb699a8__icon-554b5a1694ff8659__i" x1="22.165" x2="30.881" y1="22" y2="30.834" gradientUnits="userSpaceOnUse"><stop stop-color="#008EE6"/><stop offset="1" stop-color="#006094"/></linearGradient><radialGradient id="icon-1a2f4cca855cf59e__icon-2a0949cbac09ebe5__b" cx="0" cy="0" r="1" gradientTransform="rotate(56.31 -3.476 15.448) scale(24.7381 21.408)" gradientUnits="userSpaceOnUse"><stop offset=".177" stop-color="#fff"/><stop offset="1" stop-color="#B8B8B8"/></radialGradient></defs></svg>