<svg xmlns="http://www.w3.org/2000/svg" width="32" height="32" fill="currentColor"><path fill="url(#icon-fdb8c9fd387faeff__icon-00a75b8525320f50__a)" d="M3 6.5A3.5 3.5 0 0 1 6.5 3h19A3.5 3.5 0 0 1 29 6.5v19a3.5 3.5 0 0 1-3.5 3.5h-19A3.5 3.5 0 0 1 3 25.5v-19Z"/><path fill="url(#icon-69ba8e623d2e9f45__icon-3c0076a0fc881205__b)" fill-opacity=".2" d="M3 6.5A3.5 3.5 0 0 1 6.5 3h19A3.5 3.5 0 0 1 29 6.5v19a3.5 3.5 0 0 1-3.5 3.5h-19A3.5 3.5 0 0 1 3 25.5v-19Z"/><path fill="url(#icon-139efe65e845f43e__icon-6ecab8ad34833270__c)" fill-rule="evenodd" d="M25.5 4h-19A2.5 2.5 0 0 0 4 6.5v19A2.5 2.5 0 0 0 6.5 28h19a2.5 2.5 0 0 0 2.5-2.5v-19A2.5 2.5 0 0 0 25.5 4Zm-19-1A3.5 3.5 0 0 0 3 6.5v19A3.5 3.5 0 0 0 6.5 29h19a3.5 3.5 0 0 0 3.5-3.5v-19A3.5 3.5 0 0 0 25.5 3h-19Z" clip-rule="evenodd"/><path fill="url(#icon-bbbcd7d206abf634__icon-a81484d0fb7e9a1d__d)" fill-rule="evenodd" d="M17.525 9.905a3.071 3.071 0 0 0-3.048 0l-3.428 1.959a3.07 3.07 0 0 0-1.228 1.301l-.036.074a.717.717 0 0 0-.096.193l-.11.223.034.014a3.069 3.069 0 0 0-.113.823v3.873c0 1.102.59 2.12 1.548 2.667l3.438 1.965.933.504c.191.104.4.113.581.051.182.062.39.053.581-.05l.933-.505 3.438-1.965a3.072 3.072 0 0 0 1.548-2.667v-3.873a3.07 3.07 0 0 0-.112-.823l.036-.014-.12-.24-.008-.024a.722.722 0 0 0-.073-.14l-.042-.086a3.07 3.07 0 0 0-1.228-1.301l-3.428-1.96Zm-1.025 8.06h.001c0-1.212.746-2.299 1.877-2.734h.002l3.069-1.196c.034.148.051.302.051.457v3.873c0 .743-.398 1.43-1.044 1.799l-3.423 1.956-.533.288v-4.444Zm-5.949-3.93 3.07 1.195.003.001a2.928 2.928 0 0 1 1.876 2.695v4.482l-.533-.288-3.423-1.957a2.071 2.071 0 0 1-1.044-1.798v-3.873c0-.156.018-.31.051-.458Z" clip-rule="evenodd"/><defs><linearGradient id="icon-fdb8c9fd387faeff__icon-00a75b8525320f50__a" x1="10.222" x2="13.511" y1="3" y2="29.311" gradientUnits="userSpaceOnUse"><stop stop-color="#fff"/><stop offset="1" stop-color="#EBEBEB"/></linearGradient><linearGradient id="icon-139efe65e845f43e__icon-6ecab8ad34833270__c" x1="11.396" x2="14.897" y1="3" y2="29.256" gradientUnits="userSpaceOnUse"><stop stop-color="#BBB"/><stop offset="1" stop-color="#888"/></linearGradient><linearGradient id="icon-bbbcd7d206abf634__icon-a81484d0fb7e9a1d__d" x1="9.5" x2="23.545" y1="9.5" y2="22.458" gradientUnits="userSpaceOnUse"><stop stop-color="#4BA446"/><stop offset="1" stop-color="#3F7D35"/></linearGradient><radialGradient id="icon-69ba8e623d2e9f45__icon-3c0076a0fc881205__b" cx="0" cy="0" r="1" gradientTransform="rotate(56.31 -3.476 15.448) scale(24.7381 21.408)" gradientUnits="userSpaceOnUse"><stop offset=".177" stop-color="#fff"/><stop offset="1" stop-color="#B8B8B8"/></radialGradient></defs></svg>