<svg xmlns="http://www.w3.org/2000/svg" width="32" height="32" fill="currentColor"><path fill="url(#icon-5aa75b659ac25e33__icon-d4c593ba15c9f0ba__a)" d="M5 5.5A3.5 3.5 0 0 1 8.5 2h15A3.5 3.5 0 0 1 27 5.5v21a3.5 3.5 0 0 1-3.5 3.5h-15A3.5 3.5 0 0 1 5 26.5v-21Z"/><path fill="url(#icon-0a72cf6c38370150__icon-3f5652cf1df301cb__b)" fill-opacity=".2" d="M5 5.5A3.5 3.5 0 0 1 8.5 2h15A3.5 3.5 0 0 1 27 5.5v21a3.5 3.5 0 0 1-3.5 3.5h-15A3.5 3.5 0 0 1 5 26.5v-21Z"/><path fill="url(#icon-402282053c573ef8__icon-0946d4096f40cb95__c)" d="M17.494 8.521a.5.5 0 0 1 .335.623l-2.7 9a.5.5 0 1 1-.957-.287l2.7-9a.5.5 0 0 1 .622-.336Z"/><path fill="url(#icon-6b325d2a375e9415__icon-995ec60ce0ad4725__d)" d="M18.797 10.446a.5.5 0 0 1 .707 0l2.63 2.63a.6.6 0 0 1 0 .848l-2.63 2.63a.5.5 0 0 1-.707-.708l2.346-2.346-2.346-2.347a.5.5 0 0 1 0-.707Z"/><path fill="url(#icon-34747aa9ba6e8160__icon-f9bfd4e18cd32ff8__e)" d="M12.496 10.446a.5.5 0 1 1 .707.707L10.857 13.5l2.346 2.346a.5.5 0 0 1-.707.707l-2.63-2.629a.6.6 0 0 1 0-.848l2.63-2.63Z"/><path fill="url(#icon-2472a2439b5bf935__icon-06df8ee0944aeab3__f)" fill-rule="evenodd" d="M5 26.5v-21A3.5 3.5 0 0 1 8.5 2h15A3.5 3.5 0 0 1 27 5.5v21a3.5 3.5 0 0 1-3.5 3.5h-15A3.5 3.5 0 0 1 5 26.5ZM8.5 3h15A2.5 2.5 0 0 1 26 5.5V20a3 3 0 0 1-3 3H8.5A3.49 3.49 0 0 0 6 24.05V5.5A2.5 2.5 0 0 1 8.5 3ZM26 25.646v.854a2.5 2.5 0 0 1-2.5 2.5h-15a2.5 2.5 0 0 1 0-5H23a3.99 3.99 0 0 0 3-1.354V23a3 3 0 0 1-3 3H8a.5.5 0 0 0 0 1h15a3.99 3.99 0 0 0 3-1.354Z" clip-rule="evenodd"/><defs><linearGradient id="icon-5aa75b659ac25e33__icon-d4c593ba15c9f0ba__a" x1="11.111" x2="15.576" y1="2" y2="30.067" gradientUnits="userSpaceOnUse"><stop stop-color="#fff"/><stop offset="1" stop-color="#EBEBEB"/></linearGradient><linearGradient id="icon-402282053c573ef8__icon-0946d4096f40cb95__c" x1="9.691" x2="19.427" y1="8.5" y2="20.784" gradientUnits="userSpaceOnUse"><stop stop-color="#4BA446"/><stop offset="1" stop-color="#3F7D35"/></linearGradient><linearGradient id="icon-6b325d2a375e9415__icon-995ec60ce0ad4725__d" x1="9.691" x2="19.427" y1="8.5" y2="20.784" gradientUnits="userSpaceOnUse"><stop stop-color="#4BA446"/><stop offset="1" stop-color="#3F7D35"/></linearGradient><linearGradient id="icon-34747aa9ba6e8160__icon-f9bfd4e18cd32ff8__e" x1="9.691" x2="19.427" y1="8.5" y2="20.784" gradientUnits="userSpaceOnUse"><stop stop-color="#4BA446"/><stop offset="1" stop-color="#3F7D35"/></linearGradient><linearGradient id="icon-2472a2439b5bf935__icon-06df8ee0944aeab3__f" x1="12.104" x2="16.851" y1="2" y2="29.972" gradientUnits="userSpaceOnUse"><stop stop-color="#BBB"/><stop offset="1" stop-color="#888"/></linearGradient><radialGradient id="icon-0a72cf6c38370150__icon-3f5652cf1df301cb__b" cx="0" cy="0" r="1" gradientTransform="matrix(11.61113 22.16669 -17.08352 8.94852 12.028 9.292)" gradientUnits="userSpaceOnUse"><stop offset=".177" stop-color="#fff"/><stop offset="1" stop-color="#B8B8B8"/></radialGradient></defs></svg>