<svg xmlns="http://www.w3.org/2000/svg" width="32" height="32" fill="currentColor"><path fill="url(#icon-a2f6ce67a7810c57__icon-67d9f22dc9656634__a)" d="M3 6.5A3.5 3.5 0 0 1 6.5 3h19A3.5 3.5 0 0 1 29 6.5v19a3.5 3.5 0 0 1-3.5 3.5h-19A3.5 3.5 0 0 1 3 25.5v-19Z"/><path fill="url(#icon-b01db44a28e01512__icon-32090bc3088ee683__b)" fill-opacity=".2" d="M3 6.5A3.5 3.5 0 0 1 6.5 3h19A3.5 3.5 0 0 1 29 6.5v19a3.5 3.5 0 0 1-3.5 3.5h-19A3.5 3.5 0 0 1 3 25.5v-19Z"/><path fill="url(#icon-4b603d9100de9e37__icon-e7af35e1d128d7a1__c)" fill-rule="evenodd" d="M25.5 4h-19A2.5 2.5 0 0 0 4 6.5v19A2.5 2.5 0 0 0 6.5 28h19a2.5 2.5 0 0 0 2.5-2.5v-19A2.5 2.5 0 0 0 25.5 4Zm-19-1A3.5 3.5 0 0 0 3 6.5v19A3.5 3.5 0 0 0 6.5 29h19a3.5 3.5 0 0 0 3.5-3.5v-19A3.5 3.5 0 0 0 25.5 3h-19Z" clip-rule="evenodd"/><path fill="url(#icon-fd762acd44555cb8__icon-10026e677126b462__d)" fill-rule="evenodd" d="M9.5 9.5A1.5 1.5 0 0 0 8 11v10a1.5 1.5 0 0 0 3 0v-1h10v1a1.5 1.5 0 0 0 3 0V11a1.5 1.5 0 0 0-3 0v1H11v-1a1.5 1.5 0 0 0-1.5-1.5ZM10 21V11a.5.5 0 0 0-1 0v10a.5.5 0 0 0 1 0Zm13-10v10a.5.5 0 0 1-1 0V11a.5.5 0 0 1 1 0Z" clip-rule="evenodd"/><defs><linearGradient id="icon-a2f6ce67a7810c57__icon-67d9f22dc9656634__a" x1="10.222" x2="13.511" y1="3" y2="29.311" gradientUnits="userSpaceOnUse"><stop stop-color="#fff"/><stop offset="1" stop-color="#EBEBEB"/></linearGradient><linearGradient id="icon-4b603d9100de9e37__icon-e7af35e1d128d7a1__c" x1="11.396" x2="14.897" y1="3" y2="29.256" gradientUnits="userSpaceOnUse"><stop stop-color="#BBB"/><stop offset="1" stop-color="#888"/></linearGradient><linearGradient id="icon-fd762acd44555cb8__icon-10026e677126b462__d" x1="8" x2="20.725" y1="9.5" y2="25.161" gradientUnits="userSpaceOnUse"><stop stop-color="#4BA446"/><stop offset="1" stop-color="#3F7D35"/></linearGradient><radialGradient id="icon-b01db44a28e01512__icon-32090bc3088ee683__b" cx="0" cy="0" r="1" gradientTransform="rotate(56.31 -3.476 15.448) scale(24.7381 21.408)" gradientUnits="userSpaceOnUse"><stop offset=".177" stop-color="#fff"/><stop offset="1" stop-color="#B8B8B8"/></radialGradient></defs></svg>