<svg xmlns="http://www.w3.org/2000/svg" width="32" height="32" fill="currentColor"><path fill="url(#icon-2cc8b22780b8a570__icon-efae1744b3e93b96__a)" d="M3 6.5A3.5 3.5 0 0 1 6.5 3h19A3.5 3.5 0 0 1 29 6.5v19a3.5 3.5 0 0 1-3.5 3.5h-19A3.5 3.5 0 0 1 3 25.5v-19Z"/><path fill="url(#icon-4832229768718fa0__icon-ea292e4eca737837__b)" fill-opacity=".2" d="M3 6.5A3.5 3.5 0 0 1 6.5 3h19A3.5 3.5 0 0 1 29 6.5v19a3.5 3.5 0 0 1-3.5 3.5h-19A3.5 3.5 0 0 1 3 25.5v-19Z"/><path fill="url(#icon-a82c19db6d39d7e1__icon-977ff35a32742a61__c)" fill-rule="evenodd" d="M25.5 4h-19A2.5 2.5 0 0 0 4 6.5v19A2.5 2.5 0 0 0 6.5 28h19a2.5 2.5 0 0 0 2.5-2.5v-19A2.5 2.5 0 0 0 25.5 4Zm-19-1A3.5 3.5 0 0 0 3 6.5v19A3.5 3.5 0 0 0 6.5 29h19a3.5 3.5 0 0 0 3.5-3.5v-19A3.5 3.5 0 0 0 25.5 3h-19Z" clip-rule="evenodd"/><path fill="url(#icon-2f74a97b8fb747af__icon-370bd58b3b503bd6__d)" d="M15.906 24a8 8 0 1 0 0-16 8 8 0 0 0 0 16Z"/><path fill="#F5BCD8" d="M20.085 11.82a.5.5 0 0 0-.635-.012l-.177.14a251.6 251.6 0 0 0-3.423 2.772c-.218.183-.41.347-.56.48a3.97 3.97 0 0 0-.344.327 1.5 1.5 0 1 0 2.282 1.948c.072-.084.17-.232.27-.39.107-.17.239-.385.385-.628.292-.488.646-1.096.989-1.69a295.375 295.375 0 0 0 1.213-2.126l.111-.196a.5.5 0 0 0-.11-.626Z"/><path fill="#F5BCD8" d="M12.464 12.464a5.001 5.001 0 0 1 5.354-1.123.5.5 0 0 0 .363-.932 6 6 0 0 0-6.424 9.834.5.5 0 1 0 .707-.708 5 5 0 0 1 0-7.07Z"/><path fill="#F5F5F5" fill-rule="evenodd" d="M21.518 29.864a1.5 1.5 0 0 0 2.561 1.06l.624-.623a1.5 1.5 0 0 0 2.558.977l1.414-1.415c.134-.133.24-.29.314-.46l.45.45c.945.946 2.561.276 2.561-1.06V22.5a1.5 1.5 0 0 0-1.5-1.5h-6.293c-1.336 0-2.005 1.616-1.06 2.56l.332.333c-.17.074-.327.18-.46.313l-1.414 1.415a1.5 1.5 0 0 0 .977 2.558l-.624.624a1.5 1.5 0 0 0-.44 1.06Z" clip-rule="evenodd"/><path fill="url(#icon-9f8657025bf7621b__icon-83ac6f703f558351__e)" d="M31 22.5a.5.5 0 0 0-.5-.5h-6.293a.5.5 0 0 0-.353.854l6.293 6.293a.5.5 0 0 0 .853-.354V22.5Z"/><path fill="url(#icon-9c176bcaf761329b__icon-cc5e415becba44dd__f)" d="M24.58 25.267a.5.5 0 0 0-.854-.353l-1.415 1.414a.5.5 0 1 0 .708.707l1.414-1.414a.5.5 0 0 0 .146-.354Z"/><path fill="url(#icon-f28a5147ee6ee2c1__icon-1f070a4437b8abae__g)" d="M26.347 27.035a.5.5 0 0 0-.854-.353l-2.828 2.828a.5.5 0 1 0 .707.707L26.2 27.39a.5.5 0 0 0 .147-.354Z"/><path fill="url(#icon-6185d6ffd961ea2b__icon-8174569d34286142__h)" d="M27.968 29.157a.5.5 0 0 0-.707-.708l-1.414 1.415a.5.5 0 0 0 .707.707l1.414-1.415Z"/><defs><linearGradient id="icon-2cc8b22780b8a570__icon-efae1744b3e93b96__a" x1="10.222" x2="13.511" y1="3" y2="29.311" gradientUnits="userSpaceOnUse"><stop stop-color="#fff"/><stop offset="1" stop-color="#EBEBEB"/></linearGradient><linearGradient id="icon-a82c19db6d39d7e1__icon-977ff35a32742a61__c" x1="11.396" x2="14.897" y1="3" y2="29.256" gradientUnits="userSpaceOnUse"><stop stop-color="#BBB"/><stop offset="1" stop-color="#888"/></linearGradient><linearGradient id="icon-2f74a97b8fb747af__icon-370bd58b3b503bd6__d" x1="7.906" x2="23.906" y1="8" y2="24" gradientUnits="userSpaceOnUse"><stop stop-color="#E03F8F"/><stop offset="1" stop-color="#BD1E7B"/></linearGradient><linearGradient id="icon-9f8657025bf7621b__icon-83ac6f703f558351__e" x1="22.165" x2="30.881" y1="22" y2="30.834" gradientUnits="userSpaceOnUse"><stop stop-color="#E03F8F"/><stop offset="1" stop-color="#BD1E7B"/></linearGradient><linearGradient id="icon-9c176bcaf761329b__icon-cc5e415becba44dd__f" x1="22.165" x2="30.881" y1="22" y2="30.834" gradientUnits="userSpaceOnUse"><stop stop-color="#E03F8F"/><stop offset="1" stop-color="#BD1E7B"/></linearGradient><linearGradient id="icon-f28a5147ee6ee2c1__icon-1f070a4437b8abae__g" x1="22.165" x2="30.881" y1="22" y2="30.834" gradientUnits="userSpaceOnUse"><stop stop-color="#E03F8F"/><stop offset="1" stop-color="#BD1E7B"/></linearGradient><linearGradient id="icon-6185d6ffd961ea2b__icon-8174569d34286142__h" x1="22.165" x2="30.881" y1="22" y2="30.834" gradientUnits="userSpaceOnUse"><stop stop-color="#E03F8F"/><stop offset="1" stop-color="#BD1E7B"/></linearGradient><radialGradient id="icon-4832229768718fa0__icon-ea292e4eca737837__b" cx="0" cy="0" r="1" gradientTransform="rotate(56.31 -3.476 15.448) scale(24.7381 21.408)" gradientUnits="userSpaceOnUse"><stop offset=".177" stop-color="#fff"/><stop offset="1" stop-color="#B8B8B8"/></radialGradient></defs></svg>