<svg xmlns="http://www.w3.org/2000/svg" width="32" height="32" fill="currentColor"><path fill="url(#icon-64f90d147837d18f__icon-e0237723f8cbc6b6__a)" d="M3 6.5A3.5 3.5 0 0 1 6.5 3h19A3.5 3.5 0 0 1 29 6.5v19a3.5 3.5 0 0 1-3.5 3.5h-19A3.5 3.5 0 0 1 3 25.5v-19Z"/><path fill="url(#icon-7dbfb9873d9637ff__icon-b1b0cb8424eae939__b)" fill-opacity=".2" d="M3 6.5A3.5 3.5 0 0 1 6.5 3h19A3.5 3.5 0 0 1 29 6.5v19a3.5 3.5 0 0 1-3.5 3.5h-19A3.5 3.5 0 0 1 3 25.5v-19Z"/><path fill="url(#icon-e36928b4ee6b7591__icon-510fb2cff7c4ac21__c)" fill-rule="evenodd" d="M25.5 4h-19A2.5 2.5 0 0 0 4 6.5v19A2.5 2.5 0 0 0 6.5 28h19a2.5 2.5 0 0 0 2.5-2.5v-19A2.5 2.5 0 0 0 25.5 4Zm-19-1A3.5 3.5 0 0 0 3 6.5v19A3.5 3.5 0 0 0 6.5 29h19a3.5 3.5 0 0 0 3.5-3.5v-19A3.5 3.5 0 0 0 25.5 3h-19Z" clip-rule="evenodd"/><path fill="url(#icon-b90533fa2643ea58__icon-239c4a7ef981f615__d)" fill-rule="evenodd" d="M11.25 9a.75.75 0 0 1 .75.75v12.5a.75.75 0 1 1-1.5 0V9.75a.75.75 0 0 1 .75-.75Z" clip-rule="evenodd"/><path fill="url(#icon-b935d409d4986c88__icon-e13b6edd5153fb11__e)" fill-rule="evenodd" d="M15.25 22.25v-9.5a.75.75 0 0 1 1.5 0v9.5a.75.75 0 1 1-1.5 0Z" clip-rule="evenodd"/><path fill="url(#icon-bbbbc2c1f196b152__icon-d5fd27eff8f2efb5__f)" fill-rule="evenodd" d="M20.75 15a.75.75 0 0 1 .75.75v6.5a.75.75 0 0 1-1.5 0v-6.5a.75.75 0 0 1 .75-.75Z" clip-rule="evenodd"/><defs><linearGradient id="icon-64f90d147837d18f__icon-e0237723f8cbc6b6__a" x1="10.222" x2="13.511" y1="3" y2="29.311" gradientUnits="userSpaceOnUse"><stop stop-color="#fff"/><stop offset="1" stop-color="#EBEBEB"/></linearGradient><linearGradient id="icon-e36928b4ee6b7591__icon-510fb2cff7c4ac21__c" x1="11.396" x2="14.897" y1="3" y2="29.256" gradientUnits="userSpaceOnUse"><stop stop-color="#BBB"/><stop offset="1" stop-color="#888"/></linearGradient><linearGradient id="icon-b90533fa2643ea58__icon-239c4a7ef981f615__d" x1="10.5" x2="24.102" y1="9" y2="19.688" gradientUnits="userSpaceOnUse"><stop stop-color="#C28400"/><stop offset="1" stop-color="#A86500"/></linearGradient><linearGradient id="icon-b935d409d4986c88__icon-e13b6edd5153fb11__e" x1="10.5" x2="24.102" y1="9" y2="19.688" gradientUnits="userSpaceOnUse"><stop stop-color="#C28400"/><stop offset="1" stop-color="#A86500"/></linearGradient><linearGradient id="icon-bbbbc2c1f196b152__icon-d5fd27eff8f2efb5__f" x1="10.5" x2="24.102" y1="9" y2="19.688" gradientUnits="userSpaceOnUse"><stop stop-color="#C28400"/><stop offset="1" stop-color="#A86500"/></linearGradient><radialGradient id="icon-7dbfb9873d9637ff__icon-b1b0cb8424eae939__b" cx="0" cy="0" r="1" gradientTransform="rotate(56.31 -3.476 15.448) scale(24.7381 21.408)" gradientUnits="userSpaceOnUse"><stop offset=".177" stop-color="#fff"/><stop offset="1" stop-color="#B8B8B8"/></radialGradient></defs></svg>