<svg width="100px" height="100px" viewBox="0 0 100 100" fill="none" xmlns="http://www.w3.org/2000/svg">
<mask id="mask0" mask-type="alpha" maskUnits="userSpaceOnUse" x="9" y="22" width="82" height="57">
<path d="M9.66748 79V22.0701H90.3325V79H9.66748Z" fill="white"/>
</mask>
<g mask="url(#mask0)">
<path fill-rule="evenodd" clip-rule="evenodd" d="M43.2354 28.2791C45.8369 25.546 49.4588 23.8509 53.4645 23.8509C58.7893 23.8509 63.435 26.8447 65.909 31.2893C68.0589 30.3207 70.4386 29.7819 72.9425 29.7819C82.5464 29.7819 90.3325 37.7011 90.3325 47.4693C90.3325 57.2388 82.5464 65.1581 72.9425 65.1581C71.7704 65.1581 70.6247 65.0399 69.5171 64.8139C67.3385 68.7323 63.1868 71.3798 58.4215 71.3798C56.4268 71.3798 54.54 70.9152 52.86 70.0891C50.6515 75.3272 45.506 79 39.509 79C33.2637 79 27.9412 75.0156 25.8982 69.4275C25.0054 69.6187 24.0804 69.7184 23.1312 69.7184C15.6956 69.7184 9.66748 63.5777 9.66748 56.0015C9.66748 50.9244 12.3759 46.4915 16.3999 44.1198C15.5715 42.1976 15.1107 40.0762 15.1107 37.8458C15.1107 29.133 22.1257 22.0701 30.7783 22.0701C35.8583 22.0701 40.3731 24.5055 43.2354 28.2791Z" fill="#00A1E0"/>
</g>
<path fill-rule="evenodd" clip-rule="evenodd" d="M21.0828 51.6337C21.0353 51.7707 21.1 51.7993 21.1151 51.8232C21.2574 51.9376 21.4019 52.0197 21.5474 52.1115C22.3193 52.5643 23.048 52.6966 23.8102 52.6966C25.3627 52.6966 26.3264 51.7838 26.3264 50.3144V50.2859C26.3264 48.9274 25.2387 48.434 24.2178 48.0777L24.0851 48.03C23.3154 47.7535 22.6514 47.5152 22.6514 46.9551V46.9254C22.6514 46.4463 23.0395 46.0936 23.641 46.0936C24.3094 46.0936 25.1028 46.339 25.6139 46.6513C25.6139 46.6513 25.7637 46.7585 25.8187 46.5976C25.8489 46.5119 26.1077 45.742 26.1346 45.6586C26.1636 45.568 26.1119 45.5013 26.0591 45.4655C25.4759 45.0735 24.6695 44.8054 23.8351 44.8054L23.6798 44.8066C22.2589 44.8066 21.2671 45.7551 21.2671 47.1149V47.1434C21.2671 48.577 22.3613 49.0418 23.3866 49.3658L23.5515 49.4219C24.2986 49.6758 24.9422 49.8938 24.9422 50.4753V50.5039C24.9422 51.0354 24.5239 51.431 23.8491 51.431C23.5871 51.431 22.7516 51.4251 21.8493 50.7947C21.7404 50.7244 21.6768 50.6731 21.5927 50.6172C21.5484 50.5862 21.4375 50.5326 21.389 50.6946L21.0828 51.6337Z" fill="white"/>
<path fill-rule="evenodd" clip-rule="evenodd" d="M45.6331 51.6337C45.5856 51.7707 45.6503 51.7993 45.6654 51.8232C45.8078 51.9376 45.9521 52.0197 46.0977 52.1115C46.8696 52.5643 47.5984 52.6966 48.3605 52.6966C49.9129 52.6966 50.8767 51.7838 50.8767 50.3144V50.2859C50.8767 48.9274 49.7889 48.434 48.768 48.0777L48.6355 48.03C47.8657 47.7535 47.2016 47.5152 47.2016 46.9551V46.9254C47.2016 46.4463 47.5897 46.0936 48.1913 46.0936C48.8597 46.0936 49.6531 46.339 50.1642 46.6513C50.1642 46.6513 50.314 46.7585 50.369 46.5976C50.3991 46.5119 50.6579 45.742 50.6849 45.6586C50.7139 45.568 50.6622 45.5013 50.6093 45.4655C50.0261 45.0735 49.2198 44.8054 48.3853 44.8054L48.2301 44.8066C46.8092 44.8066 45.8174 45.7551 45.8174 47.1149V47.1434C45.8174 48.577 46.9117 49.0418 47.9368 49.3658L48.1018 49.4219C48.8489 49.6758 49.4935 49.8938 49.4935 50.4753V50.5039C49.4935 51.0354 49.0742 51.431 48.3993 51.431C48.1374 51.431 47.3019 51.4251 46.3995 50.7947C46.2907 50.7244 46.226 50.6755 46.1441 50.6172C46.116 50.5969 45.9845 50.5409 45.9393 50.6946L45.6331 51.6337Z" fill="white"/>
<path fill-rule="evenodd" clip-rule="evenodd" d="M63.8173 47.2087C63.6762 46.7302 63.4564 46.3081 63.1638 45.9567C62.871 45.6041 62.5006 45.3211 62.061 45.1148C61.6225 44.9097 61.104 44.8054 60.5222 44.8054C59.9391 44.8054 59.4206 44.9097 58.9821 45.1148C58.5425 45.3211 58.1721 45.6041 57.8782 45.9567C57.5866 46.3093 57.3668 46.7314 57.2247 47.2087C57.0849 47.6849 57.0144 48.2053 57.0144 48.7582C57.0144 49.3111 57.0849 49.8327 57.2247 50.3076C57.3668 50.785 57.5855 51.207 57.8794 51.5596C58.1721 51.9122 58.5437 52.194 58.9821 52.3944C59.4218 52.5946 59.9391 52.6966 60.5222 52.6966C61.104 52.6966 61.6213 52.5946 62.061 52.3944C62.4995 52.194 62.871 51.9122 63.1638 51.5596C63.4564 51.2083 63.6762 50.7861 63.8173 50.3076C63.9583 49.8315 64.0287 49.3099 64.0287 48.7582C64.0287 48.2065 63.9583 47.6849 63.8173 47.2087ZM62.3812 48.7582C62.3812 49.5941 62.2259 50.2525 61.92 50.7178C61.6177 51.1783 61.1602 51.4026 60.5222 51.4026C59.883 51.4026 59.4278 51.1795 59.1303 50.7178C58.8293 50.2537 58.6763 49.5941 58.6763 48.7582C58.6763 47.9235 58.8293 47.2663 59.1303 46.8058C59.4278 46.3501 59.883 46.1282 60.5222 46.1282C61.1602 46.1282 61.6177 46.3501 61.9212 46.8058C62.2259 47.2663 62.3812 47.9235 62.3812 48.7582Z" fill="white"/>
<path fill-rule="evenodd" clip-rule="evenodd" d="M74.2253 51.1838C74.1826 51.0436 74.0621 51.0963 74.0621 51.0963C73.8755 51.1766 73.6772 51.2509 73.466 51.288C73.2517 51.3252 73.016 51.3444 72.7633 51.3444C72.1427 51.3444 71.6501 51.137 71.2971 50.7271C70.9431 50.3171 70.7448 49.6542 70.7469 48.7575C70.749 47.9412 70.9239 47.3275 71.2385 46.86C71.551 46.3948 72.0265 46.1564 72.6609 46.1564C73.1899 46.1564 73.593 46.2247 74.0152 46.3745C74.0152 46.3745 74.1165 46.4236 74.1644 46.2751C74.2764 45.925 74.3596 45.6745 74.479 45.2897C74.5131 45.1806 74.43 45.1338 74.4001 45.1207C74.2338 45.0475 73.8414 44.9289 73.545 44.8785C73.2677 44.8306 72.9436 44.8054 72.5832 44.8054C72.0446 44.8054 71.5648 44.9084 71.1543 45.1146C70.7448 45.3197 70.3972 45.6025 70.1221 45.955C69.8469 46.3074 69.638 46.7293 69.4983 47.2064C69.3596 47.6824 69.2893 48.2049 69.2893 48.7575C69.2893 49.9527 69.5761 50.9188 70.1424 51.6261C70.7096 52.3358 71.5616 52.6966 72.6727 52.6966C73.3295 52.6966 74.0035 52.5467 74.4876 52.3322C74.4876 52.3322 74.5803 52.2818 74.5398 52.1608L74.2253 51.1838Z" fill="white"/>
<path fill-rule="evenodd" clip-rule="evenodd" d="M81.3902 46.9362C81.279 46.4745 81.0031 46.0081 80.8221 45.7947C80.5364 45.4565 80.2573 45.2203 79.9804 45.0884C79.6183 44.9182 79.1844 44.8054 78.709 44.8054C78.1551 44.8054 77.6524 44.9074 77.2447 45.1184C76.8357 45.3294 76.4923 45.6172 76.223 45.9757C75.9536 46.333 75.7508 46.7587 75.6222 47.2419C75.4924 47.7227 75.427 48.2467 75.427 48.7996C75.427 49.3619 75.4946 49.8859 75.6287 50.3572C75.7639 50.832 75.9798 51.2505 76.272 51.597C76.5631 51.946 76.9383 52.2193 77.3875 52.4099C77.8334 52.5994 78.3753 52.6977 78.9979 52.6966C80.2791 52.6918 80.9541 52.3776 81.2321 52.2085C81.2812 52.1785 81.328 52.1258 81.2691 51.9746L80.9791 51.0814C80.9354 50.9483 80.8123 50.9975 80.8123 50.9975C80.495 51.127 80.0436 51.3596 78.9914 51.3572C78.3034 51.356 77.7931 51.133 77.4736 50.784C77.1454 50.4267 76.9851 49.9015 76.9568 49.1604L81.3935 49.1652C81.3935 49.1652 81.5101 49.1629 81.5221 49.0382C81.5264 48.9854 81.6747 48.0358 81.3902 46.9362ZM76.9775 47.9565C77.0396 47.4925 77.1563 47.1065 77.3362 46.8055C77.6078 46.3486 78.022 46.098 78.6044 46.098C79.1865 46.098 79.5715 46.3498 79.8473 46.8055C80.0305 47.1065 80.1101 47.5093 80.1417 47.9565H76.9775Z" fill="white"/>
<path fill-rule="evenodd" clip-rule="evenodd" d="M43.6872 46.9362C43.5759 46.4745 43.3012 46.0081 43.1202 45.7947C42.8345 45.4565 42.5554 45.2203 42.2784 45.0884C41.9164 44.9182 41.4825 44.8054 41.007 44.8054C40.4542 44.8054 39.9504 44.9074 39.5427 45.1184C39.1337 45.3294 38.7903 45.6172 38.521 45.9757C38.2517 46.333 38.0489 46.7587 37.9201 47.2419C37.7915 47.7227 37.725 48.2467 37.725 48.7996C37.725 49.3619 37.7926 49.8859 37.9267 50.3572C38.0619 50.832 38.2778 51.2505 38.57 51.597C38.8612 51.946 39.2363 52.2193 39.6855 52.4099C40.1314 52.5994 40.6734 52.6977 41.296 52.6966C42.5772 52.6918 43.2521 52.3776 43.5302 52.2085C43.5792 52.1785 43.6261 52.1258 43.5673 51.9746L43.2783 51.0814C43.2336 50.9483 43.1104 50.9975 43.1104 50.9975C42.7931 51.127 42.3428 51.3596 41.2883 51.3572C40.6014 51.356 40.0911 51.133 39.7716 50.784C39.4434 50.4267 39.2831 49.9015 39.2548 49.1604L43.6915 49.1652C43.6915 49.1652 43.8082 49.1629 43.8202 49.0382C43.8246 48.9854 43.9729 48.0358 43.6872 46.9362ZM39.2755 47.9565C39.3388 47.4925 39.4543 47.1065 39.6342 46.8055C39.9058 46.3486 40.3201 46.098 40.9024 46.098C41.4846 46.098 41.8695 46.3498 42.1465 46.8055C42.3286 47.1065 42.4081 47.5093 42.4398 47.9565H39.2755Z" fill="white"/>
<path fill-rule="evenodd" clip-rule="evenodd" d="M31.0454 47.7285C30.8529 47.7141 30.6033 47.7057 30.3047 47.7057C29.8977 47.7057 29.5046 47.7584 29.1361 47.8603C28.7651 47.9621 28.4316 48.1214 28.1446 48.3323C27.8565 48.5443 27.6244 48.8151 27.4565 49.1361C27.2885 49.4572 27.2034 49.8358 27.2034 50.2598C27.2034 50.6912 27.2757 51.0661 27.4203 51.3728C27.565 51.6806 27.7737 51.9371 28.0397 52.1346C28.3032 52.3324 28.6287 52.4774 29.0066 52.5648C29.3787 52.6523 29.8009 52.6966 30.2627 52.6966C30.7492 52.6966 31.2344 52.6558 31.7044 52.5732C32.1698 52.4918 32.7413 52.3731 32.8999 52.336C33.0573 52.2976 33.2323 52.2485 33.2323 52.2485C33.3501 52.2185 33.3408 52.0892 33.3408 52.0892L33.3385 47.6314C33.3385 46.6539 33.0841 45.9291 32.5838 45.4799C32.0858 45.0318 31.3521 44.8054 30.4039 44.8054C30.0481 44.8054 29.4755 44.8558 29.1326 44.9264C29.1326 44.9264 28.0957 45.1325 27.6687 45.4751C27.6687 45.4751 27.5755 45.535 27.6268 45.6691L27.9627 46.5964C28.0046 46.7162 28.1178 46.6755 28.1178 46.6755C28.1178 46.6755 28.1539 46.6611 28.1959 46.6359C29.1092 46.1256 30.2639 46.1412 30.2639 46.1412C30.7771 46.1412 31.1713 46.2465 31.4373 46.4562C31.6962 46.6599 31.828 46.9677 31.828 47.617V47.8231C31.4198 47.7633 31.0454 47.7285 31.0454 47.7285ZM29.157 51.1536C28.9716 51.0014 28.9459 50.9631 28.8829 50.8648C28.7896 50.7151 28.7419 50.5018 28.7419 50.2311C28.7419 49.8022 28.8795 49.4943 29.1652 49.2871C29.1617 49.2883 29.5734 48.9217 30.5415 48.9348C31.2215 48.9444 31.8291 49.0475 31.8291 49.0475V51.2638H31.8304C31.8304 51.2638 31.2273 51.3968 30.5485 51.4387C29.5828 51.4986 29.1535 51.1523 29.157 51.1536Z" fill="white"/>
<path fill-rule="evenodd" clip-rule="evenodd" d="M69.2799 45.1016C69.3159 45.0005 69.2403 44.952 69.2088 44.9411C69.1284 44.9114 68.7256 44.8312 68.4147 44.8124C67.8197 44.7784 67.489 44.8729 67.1933 44.9983C66.8999 45.1236 66.574 45.3259 66.3923 45.5556V45.0114C66.3923 44.9356 66.3352 44.8751 66.256 44.8751H65.0416C64.9624 44.8751 64.9054 44.9356 64.9054 45.0114V51.6834C64.9054 51.7582 64.9706 51.8198 65.0498 51.8198H66.2945C66.3736 51.8198 66.4378 51.7582 66.4378 51.6834V48.3502C66.4378 47.9028 66.49 47.4564 66.5949 47.1761C66.6974 46.8991 66.8371 46.677 67.0094 46.5176C67.1829 46.3593 67.3796 46.2482 67.595 46.1856C67.8152 46.1218 68.0584 46.1009 68.2308 46.1009C68.4788 46.1009 68.7512 46.1614 68.7512 46.1614C68.842 46.1713 68.8933 46.1185 68.9235 46.0404C69.005 45.836 69.2356 45.2236 69.2799 45.1016Z" fill="white"/>
<path fill-rule="evenodd" clip-rule="evenodd" d="M57.7995 42.3362C57.6551 42.2894 57.5241 42.2578 57.353 42.2238C57.1797 42.1909 56.973 42.1746 56.7387 42.1746C55.9211 42.1746 55.2768 42.4182 54.8247 42.8984C54.3748 43.3762 54.0693 44.1036 53.916 45.0604L53.8605 45.3825H52.8341C52.8341 45.3825 52.7096 45.3779 52.6829 45.5208L52.5153 46.5127C52.5029 46.6065 52.5419 46.6661 52.6619 46.6661H53.6606L52.6474 52.6299C52.5685 53.1101 52.4774 53.5049 52.3763 53.8047C52.2775 54.0998 52.1809 54.3212 52.0609 54.4828C51.9454 54.6374 51.8365 54.7521 51.6476 54.819C51.4921 54.874 51.3122 54.8997 51.1156 54.8997C51.0066 54.8997 50.8611 54.881 50.7534 54.8576C50.6468 54.8353 50.5902 54.8107 50.509 54.7744C50.509 54.7744 50.3924 54.7276 50.3458 54.8506C50.3091 54.9525 50.0424 55.7243 50.0103 55.8192C49.9791 55.9141 50.0236 55.9878 50.0802 56.0101C50.2135 56.0592 50.3124 56.0921 50.4934 56.1377C50.7445 56.1998 50.9567 56.2033 51.1556 56.2033C51.571 56.2033 51.9509 56.1412 52.2653 56.0218C52.5808 55.9011 52.8562 55.6914 53.1006 55.4081C53.3639 55.1013 53.5294 54.7803 53.6871 54.341C53.8438 53.9078 53.9782 53.369 54.0848 52.7413L55.1035 46.6661H56.592C56.592 46.6661 56.7176 46.6708 56.7431 46.5268L56.912 45.5359C56.9231 45.4411 56.8853 45.3825 56.7642 45.3825H55.319C55.3268 45.3486 55.3923 44.8121 55.5578 44.3074C55.6289 44.093 55.7622 43.9185 55.8744 43.799C55.9856 43.6819 56.1132 43.5988 56.2532 43.5507C56.3965 43.5016 56.5598 43.4781 56.7387 43.4781C56.8742 43.4781 57.0086 43.4945 57.1097 43.5168C57.2497 43.5484 57.3041 43.5648 57.3408 43.5765C57.4885 43.6234 57.5084 43.5777 57.5374 43.5027L57.8828 42.5025C57.9183 42.3948 57.8306 42.3491 57.7995 42.3362Z" fill="white"/>
<path fill-rule="evenodd" clip-rule="evenodd" d="M36.8481 52.5512C36.8481 52.6313 36.7826 52.6961 36.6917 52.6961H35.2495C35.1586 52.6961 35.0945 52.6313 35.0945 52.5512V42.3195C35.0945 42.2394 35.1586 42.1746 35.2495 42.1746H36.6917C36.7826 42.1746 36.8481 42.2394 36.8481 42.3195V52.5512Z" fill="white"/>
</svg>
