<svg xmlns="http://www.w3.org/2000/svg" width="32" height="32" fill="currentColor"><path fill="url(#icon-28f54da2b765a60e__icon-4d98df9e993a698c__a)" d="M3 6.5A3.5 3.5 0 0 1 6.5 3h19A3.5 3.5 0 0 1 29 6.5v19a3.5 3.5 0 0 1-3.5 3.5h-19A3.5 3.5 0 0 1 3 25.5v-19Z"/><path fill="url(#icon-0638ae7c1ea16ef8__icon-8b7aaab1d377de49__b)" fill-opacity=".2" d="M3 6.5A3.5 3.5 0 0 1 6.5 3h19A3.5 3.5 0 0 1 29 6.5v19a3.5 3.5 0 0 1-3.5 3.5h-19A3.5 3.5 0 0 1 3 25.5v-19Z"/><path fill="url(#icon-e27a385c5f1aca6a__icon-069146db1f2be673__c)" fill-rule="evenodd" d="M25.5 4h-19A2.5 2.5 0 0 0 4 6.5v19A2.5 2.5 0 0 0 6.5 28h19a2.5 2.5 0 0 0 2.5-2.5v-19A2.5 2.5 0 0 0 25.5 4Zm-19-1A3.5 3.5 0 0 0 3 6.5v19A3.5 3.5 0 0 0 6.5 29h19a3.5 3.5 0 0 0 3.5-3.5v-19A3.5 3.5 0 0 0 25.5 3h-19Z" clip-rule="evenodd"/><path fill="url(#icon-bf2e681f632b8b97__icon-bfb0dc5157be79e0__d)" fill-rule="evenodd" d="M16 8a.75.75 0 0 1 .75.75v5.951l5.154-2.975a.75.75 0 0 1 .75 1.299L17.5 16l5.154 2.976a.75.75 0 1 1-.75 1.299l-5.154-2.976v5.951a.75.75 0 0 1-1.5 0V17.3l-5.153 2.975a.75.75 0 0 1-.75-1.3L14.5 16l-5.154-2.975a.75.75 0 1 1 .75-1.3l5.153 2.976V8.75A.75.75 0 0 1 16 8Z" clip-rule="evenodd"/><defs><linearGradient id="icon-28f54da2b765a60e__icon-4d98df9e993a698c__a" x1="10.222" x2="13.511" y1="3" y2="29.311" gradientUnits="userSpaceOnUse"><stop stop-color="#fff"/><stop offset="1" stop-color="#EBEBEB"/></linearGradient><linearGradient id="icon-e27a385c5f1aca6a__icon-069146db1f2be673__c" x1="11.396" x2="14.897" y1="3" y2="29.256" gradientUnits="userSpaceOnUse"><stop stop-color="#BBB"/><stop offset="1" stop-color="#888"/></linearGradient><linearGradient id="icon-bf2e681f632b8b97__icon-bfb0dc5157be79e0__d" x1="8.972" x2="24.839" y1="8" y2="21.941" gradientUnits="userSpaceOnUse"><stop stop-color="#4BA446"/><stop offset="1" stop-color="#3F7D35"/></linearGradient><radialGradient id="icon-0638ae7c1ea16ef8__icon-8b7aaab1d377de49__b" cx="0" cy="0" r="1" gradientTransform="rotate(56.31 -3.476 15.448) scale(24.7381 21.408)" gradientUnits="userSpaceOnUse"><stop offset=".177" stop-color="#fff"/><stop offset="1" stop-color="#B8B8B8"/></radialGradient></defs></svg>