<svg fill="#000000" xmlns="http://www.w3.org/2000/svg" viewBox="0 0 32 32" width="32px" height="32px"><path d="M 4 6 L 4 7 L 4 17 L 16 17 L 16 6 L 4 6 z M 23 6 C 20.802666 6 19 7.8026661 19 10 C 19 11.151992 19.510768 12.176056 20.298828 12.908203 C 18.948528 13.80602 18 15.266416 18 17 L 20 17 C 20 15.331516 21.331516 14 23 14 C 24.668484 14 26 15.331516 26 17 L 28 17 C 28 15.266416 27.051472 13.80602 25.701172 12.908203 C 26.489232 12.176056 27 11.151992 27 10 C 27 7.8026661 25.197334 6 23 6 z M 6 8 L 14 8 L 14 15 L 6 15 L 6 8 z M 23 8 C 24.116666 8 25 8.8833339 25 10 C 25 11.116666 24.116666 12 23 12 C 21.883334 12 21 11.116666 21 10 C 21 8.8833339 21.883334 8 23 8 z M 8 10 L 8 12 L 12 12 L 12 10 L 8 10 z M 23 17.585938 L 19 21.585938 L 20.414062 23 L 22 21.414062 L 22 25 L 11 25 L 11 19 L 9 19 L 9 27 L 24 27 L 24 21.414062 L 25.585938 23 L 27 21.585938 L 23 17.585938 z"/></svg>