<svg width="16" height="16" viewBox="0 0 16 16" fill="none" xmlns="http://www.w3.org/2000/svg">
<rect x="1" y="2" width="14" height="2" fill="#83BEEC"/>
<rect x="1" y="5" width="14" height="9" fill="white"/>
<path d="M13 1H16V15H0V1H3V0H4V1H12V0H13V1ZM3 2H1V4H15V2H13V3H12V2H4V3H3V2ZM1 14H15V5H1V14Z" fill="#3A3A38"/>
<path d="M10.1484 6.64844L10.8516 7.35156L8.71094 9.5L10.8516 11.6484L10.1484 12.3516L8 10.2031L5.85156 12.3516L5.14844 11.6484L7.28906 9.5L5.14844 7.35156L5.85156 6.64844L8 8.79688L10.1484 6.64844Z" fill="#ED3D3B"/>
</svg>
