<svg width="16" height="16" viewBox="0 0 16 16" fill="none" xmlns="http://www.w3.org/2000/svg">
<rect x="1" y="2" width="14" height="2" fill="#83BEEC"/>
<path d="M15 5H1V14H8.03076L7.63232 13.6001L10.0991 11.1333L11.4985 12.5249L15 9.03076V5Z" fill="white"/>
<path d="M15 13.9741L14.9746 14H15V13.9741Z" fill="white"/>
<path d="M16 1V9H15V5H1V14H8V15H0V1H3V0H4V1H12V0H13V1H16ZM15 4V2H13V3H12V2H4V3H3V2H1V4H15Z" fill="#3A3A38"/>
<path d="M15.8516 11.3516L15.1484 10.6484L11.5 14.2891L10.1016 12.8984L9.39844 13.6016L11.5 15.7109L15.8516 11.3516Z" fill="#1E8BCD"/>
</svg>
