<svg width="16" height="12" viewBox="0 0 16 12" fill="none" xmlns="http://www.w3.org/2000/svg">
<path d="M8 3C8.14062 3 8.27083 3.02604 8.39062 3.07812C8.51042 3.13021 8.61458 3.20312 8.70312 3.29688C8.79688 3.38542 8.86979 3.48958 8.92188 3.60938C8.97396 3.72917 9 3.85938 9 4C9 4.14062 8.97396 4.27083 8.92188 4.39062C8.86979 4.51042 8.79688 4.61719 8.70312 4.71094C8.61458 4.79948 8.51042 4.86979 8.39062 4.92188C8.27083 4.97396 8.14062 5 8 5C7.85938 5 7.72917 4.97396 7.60938 4.92188C7.48958 4.86979 7.38281 4.79948 7.28906 4.71094C7.20052 4.61719 7.13021 4.51042 7.07812 4.39062C7.02604 4.27083 7 4.14062 7 4C7 3.85938 7.02604 3.72917 7.07812 3.60938C7.13021 3.48958 7.20052 3.38542 7.28906 3.29688C7.38281 3.20312 7.48958 3.13021 7.60938 3.07812C7.72917 3.02604 7.85938 3 8 3ZM12.5 5C12.9844 5 13.4375 5.09115 13.8594 5.27344C14.2865 5.45573 14.6589 5.70573 14.9766 6.02344C15.2943 6.34115 15.5443 6.71354 15.7266 7.14062C15.9089 7.5625 16 8.01562 16 8.5C16 8.98438 15.9089 9.4401 15.7266 9.86719C15.5443 10.2891 15.2943 10.6589 14.9766 10.9766C14.6589 11.2943 14.2865 11.5443 13.8594 11.7266C13.4375 11.9089 12.9844 12 12.5 12C12.0156 12 11.5599 11.9089 11.1328 11.7266C10.7109 11.5443 10.3411 11.2943 10.0234 10.9766C9.70573 10.6589 9.45573 10.2891 9.27344 9.86719C9.09115 9.4401 9 8.98438 9 8.5C9 8.01562 9.09115 7.5625 9.27344 7.14062C9.45573 6.71354 9.70573 6.34115 10.0234 6.02344C10.3411 5.70573 10.7109 5.45573 11.1328 5.27344C11.5599 5.09115 12.0156 5 12.5 5ZM10 8.5C10 8.84375 10.0651 9.16927 10.1953 9.47656C10.3255 9.77865 10.5026 10.0443 10.7266 10.2734C10.9557 10.4974 11.2214 10.6745 11.5234 10.8047C11.8307 10.9349 12.1562 11 12.5 11C12.7448 11 12.9844 10.9661 13.2188 10.8984C13.4531 10.8255 13.6719 10.7214 13.875 10.5859L10.4141 7.125C10.2786 7.32812 10.1745 7.54688 10.1016 7.78125C10.0339 8.01562 10 8.25521 10 8.5ZM14.5859 9.875C14.7214 9.67188 14.8229 9.45312 14.8906 9.21875C14.9635 8.98438 15 8.74479 15 8.5C15 8.15625 14.9323 7.83333 14.7969 7.53125C14.6667 7.22917 14.487 6.96615 14.2578 6.74219C14.0339 6.51302 13.7708 6.33333 13.4688 6.20312C13.1667 6.06771 12.8438 6 12.5 6C12.2552 6 12.0156 6.03646 11.7812 6.10938C11.5469 6.17708 11.3281 6.27865 11.125 6.41406L14.5859 9.875ZM5 4C5 4.38542 5.06771 4.75 5.20312 5.09375C5.33854 5.43229 5.52604 5.73438 5.76562 6C6.00521 6.26562 6.28646 6.48438 6.60938 6.65625C6.9375 6.82812 7.29167 6.9375 7.67188 6.98438C7.77083 6.99479 7.86979 7 7.96875 7C8.07292 7 8.17448 7 8.27344 7C8.15885 7.32812 8.08333 7.66146 8.04688 8C7.25521 8 6.48698 7.90104 5.74219 7.70312C5.0026 7.5 4.29167 7.22135 3.60938 6.86719C2.93229 6.51302 2.28906 6.09115 1.67969 5.60156C1.07552 5.11198 0.515625 4.57812 0 4C0.505208 3.43229 1.0599 2.90365 1.66406 2.41406C2.26823 1.92448 2.90885 1.5026 3.58594 1.14844C4.26823 0.789062 4.97917 0.507812 5.71875 0.304688C6.45833 0.101562 7.21875 0 8 0C8.79688 0 9.56771 0.0963542 10.3125 0.289062C11.0573 0.476562 11.7656 0.744792 12.4375 1.09375C13.1146 1.44271 13.7526 1.86458 14.3516 2.35938C14.9505 2.84896 15.5 3.39583 16 4L15.2891 4.71094L15.2266 4.64062C14.6641 3.98438 14.0573 3.40104 13.4062 2.89062C12.7604 2.375 12.0339 1.95573 11.2266 1.63281C11.4766 1.97656 11.6667 2.35156 11.7969 2.75781C11.9323 3.16406 12 3.57812 12 4V4.04688C11.6615 4.08333 11.3281 4.15885 11 4.27344V4C11 3.58854 10.9193 3.20052 10.7578 2.83594C10.6016 2.47135 10.388 2.15365 10.1172 1.88281C9.84635 1.61198 9.52865 1.39844 9.16406 1.24219C8.79948 1.08073 8.41146 1 8 1C7.58854 1 7.20052 1.08073 6.83594 1.24219C6.47135 1.39844 6.15365 1.61198 5.88281 1.88281C5.61198 2.15365 5.39583 2.47135 5.23438 2.83594C5.07812 3.20052 5 3.58854 5 4ZM4.71094 6.27344C4.47656 5.9401 4.29948 5.58073 4.17969 5.19531C4.0599 4.80469 4 4.40625 4 4C4 3.59375 4.0599 3.19792 4.17969 2.8125C4.29948 2.42188 4.47656 2.0599 4.71094 1.72656C4.08594 1.9974 3.4974 2.32552 2.94531 2.71094C2.39323 3.09635 1.8724 3.52604 1.38281 4C1.8724 4.47396 2.39323 4.90365 2.94531 5.28906C3.4974 5.67448 4.08594 6.0026 4.71094 6.27344Z" fill="#333333"/>
</svg>
