<svg width="16" height="12" viewBox="0 0 16 12" fill="none" xmlns="http://www.w3.org/2000/svg">
<path d="M14.4531 3.375C14.6875 3.50521 14.901 3.66667 15.0938 3.85938C15.2865 4.04688 15.4479 4.25521 15.5781 4.48438C15.7135 4.70833 15.8177 4.95052 15.8906 5.21094C15.9635 5.46615 16 5.72917 16 6H15C15 5.72917 14.9453 5.47135 14.8359 5.22656C14.7318 4.98177 14.5885 4.77083 14.4062 4.59375C14.2292 4.41146 14.0182 4.26823 13.7734 4.16406C13.5286 4.05469 13.2708 4 13 4C12.724 4 12.4635 4.05469 12.2188 4.16406C11.9792 4.26823 11.7682 4.41146 11.5859 4.59375C11.4089 4.77083 11.2656 4.98177 11.1562 5.22656C11.0521 5.47135 11 5.72917 11 6C11 6.47396 10.8906 6.92448 10.6719 7.35156C10.4583 7.77865 10.1615 8.13281 9.78125 8.41406C10.1198 8.58594 10.4245 8.79948 10.6953 9.05469C10.9714 9.30469 11.2057 9.58594 11.3984 9.89844C11.5911 10.2057 11.7396 10.5391 11.8438 10.8984C11.9479 11.2526 12 11.6198 12 12H11C11 11.5885 10.9193 11.2005 10.7578 10.8359C10.6016 10.4714 10.388 10.1536 10.1172 9.88281C9.84635 9.61198 9.52865 9.39844 9.16406 9.24219C8.79948 9.08073 8.41146 9 8 9C7.58854 9 7.20052 9.08073 6.83594 9.24219C6.47135 9.39844 6.15365 9.61198 5.88281 9.88281C5.61198 10.1536 5.39583 10.4714 5.23438 10.8359C5.07812 11.2005 5 11.5885 5 12H4C4 11.6198 4.05208 11.2526 4.15625 10.8984C4.26042 10.5391 4.40885 10.2057 4.60156 9.89844C4.79427 9.58594 5.02604 9.30469 5.29688 9.05469C5.57292 8.79948 5.88021 8.58594 6.21875 8.41406C5.83854 8.13281 5.53906 7.77865 5.32031 7.35156C5.10677 6.92448 5 6.47396 5 6C5 5.72917 4.94531 5.47135 4.83594 5.22656C4.73177 4.98177 4.58854 4.77083 4.40625 4.59375C4.22917 4.41146 4.01823 4.26823 3.77344 4.16406C3.52865 4.05469 3.27083 4 3 4C2.72396 4 2.46354 4.05469 2.21875 4.16406C1.97917 4.26823 1.76823 4.41146 1.58594 4.59375C1.40885 4.77083 1.26562 4.98177 1.15625 5.22656C1.05208 5.47135 1 5.72917 1 6H0C0 5.72917 0.0364583 5.46615 0.109375 5.21094C0.182292 4.95052 0.283854 4.70833 0.414062 4.48438C0.549479 4.25521 0.713542 4.04688 0.90625 3.85938C1.09896 3.66667 1.3125 3.50521 1.54688 3.375C1.375 3.19271 1.23958 2.98177 1.14062 2.74219C1.04688 2.5026 1 2.25521 1 2C1 1.72917 1.05208 1.47135 1.15625 1.22656C1.26562 0.981771 1.40885 0.770833 1.58594 0.59375C1.76823 0.411458 1.97917 0.268229 2.21875 0.164062C2.46354 0.0546875 2.72396 0 3 0C3.27083 0 3.52865 0.0546875 3.77344 0.164062C4.01823 0.268229 4.22917 0.411458 4.40625 0.59375C4.58854 0.770833 4.73177 0.981771 4.83594 1.22656C4.94531 1.47135 5 1.72917 5 2C5 2.25521 4.95052 2.5026 4.85156 2.74219C4.75781 2.98177 4.625 3.19271 4.45312 3.375C4.88021 3.60938 5.22917 3.93229 5.5 4.34375C5.78125 3.92708 6.14062 3.59896 6.57812 3.35938C7.02083 3.11979 7.49479 3 8 3C8.50521 3 8.97656 3.11979 9.41406 3.35938C9.85677 3.59896 10.2188 3.92708 10.5 4.34375C10.7708 3.93229 11.1198 3.60938 11.5469 3.375C11.375 3.19271 11.2396 2.98177 11.1406 2.74219C11.0469 2.5026 11 2.25521 11 2C11 1.72917 11.0521 1.47135 11.1562 1.22656C11.2656 0.981771 11.4089 0.770833 11.5859 0.59375C11.7682 0.411458 11.9792 0.268229 12.2188 0.164062C12.4635 0.0546875 12.724 0 13 0C13.2708 0 13.5286 0.0546875 13.7734 0.164062C14.0182 0.268229 14.2292 0.411458 14.4062 0.59375C14.5885 0.770833 14.7318 0.981771 14.8359 1.22656C14.9453 1.47135 15 1.72917 15 2C15 2.25521 14.9505 2.5026 14.8516 2.74219C14.7578 2.98177 14.625 3.19271 14.4531 3.375ZM2 2C2 2.14062 2.02604 2.27083 2.07812 2.39062C2.13021 2.51042 2.20052 2.61719 2.28906 2.71094C2.38281 2.79948 2.48958 2.86979 2.60938 2.92188C2.72917 2.97396 2.85938 3 3 3C3.14062 3 3.27083 2.97396 3.39062 2.92188C3.51042 2.86979 3.61458 2.79948 3.70312 2.71094C3.79688 2.61719 3.86979 2.51042 3.92188 2.39062C3.97396 2.27083 4 2.14062 4 2C4 1.85938 3.97396 1.72917 3.92188 1.60938C3.86979 1.48958 3.79688 1.38542 3.70312 1.29688C3.61458 1.20312 3.51042 1.13021 3.39062 1.07812C3.27083 1.02604 3.14062 1 3 1C2.85938 1 2.72917 1.02604 2.60938 1.07812C2.48958 1.13021 2.38281 1.20312 2.28906 1.29688C2.20052 1.38542 2.13021 1.48958 2.07812 1.60938C2.02604 1.72917 2 1.85938 2 2ZM8 8C8.27083 8 8.52865 7.94792 8.77344 7.84375C9.01823 7.73438 9.22917 7.59115 9.40625 7.41406C9.58854 7.23177 9.73177 7.02083 9.83594 6.78125C9.94531 6.53646 10 6.27604 10 6C10 5.72917 9.94531 5.47135 9.83594 5.22656C9.73177 4.98177 9.58854 4.77083 9.40625 4.59375C9.22917 4.41146 9.01823 4.26823 8.77344 4.16406C8.52865 4.05469 8.27083 4 8 4C7.72396 4 7.46354 4.05469 7.21875 4.16406C6.97917 4.26823 6.76823 4.41146 6.58594 4.59375C6.40885 4.77083 6.26562 4.98177 6.15625 5.22656C6.05208 5.47135 6 5.72917 6 6C6 6.27604 6.05208 6.53646 6.15625 6.78125C6.26562 7.02083 6.40885 7.23177 6.58594 7.41406C6.76823 7.59115 6.97917 7.73438 7.21875 7.84375C7.46354 7.94792 7.72396 8 8 8ZM12 2C12 2.14062 12.026 2.27083 12.0781 2.39062C12.1302 2.51042 12.2005 2.61719 12.2891 2.71094C12.3828 2.79948 12.4896 2.86979 12.6094 2.92188C12.7292 2.97396 12.8594 3 13 3C13.1406 3 13.2708 2.97396 13.3906 2.92188C13.5104 2.86979 13.6146 2.79948 13.7031 2.71094C13.7969 2.61719 13.8698 2.51042 13.9219 2.39062C13.974 2.27083 14 2.14062 14 2C14 1.85938 13.974 1.72917 13.9219 1.60938C13.8698 1.48958 13.7969 1.38542 13.7031 1.29688C13.6146 1.20312 13.5104 1.13021 13.3906 1.07812C13.2708 1.02604 13.1406 1 13 1C12.8594 1 12.7292 1.02604 12.6094 1.07812C12.4896 1.13021 12.3828 1.20312 12.2891 1.29688C12.2005 1.38542 12.1302 1.48958 12.0781 1.60938C12.026 1.72917 12 1.85938 12 2Z" fill="#333333"/>
</svg>
