<svg width="15" height="16" viewBox="0 0 15 16" fill="none" xmlns="http://www.w3.org/2000/svg">
<path d="M14.8516 11.3516L10.5 15.7109L8.39844 13.6016L9.10156 12.8984L10.5 14.2891L14.1484 10.6484L14.8516 11.3516ZM11.4609 11.9141C10.8828 11.2786 10.2083 10.8021 9.4375 10.4844C8.66667 10.1615 7.85417 10 7 10C6.4375 10 5.89844 10.0703 5.38281 10.2109C4.8724 10.3516 4.39323 10.5521 3.94531 10.8125C3.5026 11.0677 3.09896 11.3776 2.73438 11.7422C2.375 12.1016 2.0651 12.5052 1.80469 12.9531C1.54948 13.3958 1.35156 13.875 1.21094 14.3906C1.07031 14.901 1 15.4375 1 16H0C0 15.2552 0.106771 14.5391 0.320312 13.8516C0.539062 13.1641 0.848958 12.5312 1.25 11.9531C1.65104 11.375 2.13542 10.8672 2.70312 10.4297C3.27604 9.99219 3.91406 9.64844 4.61719 9.39844C4.21094 9.17969 3.84635 8.91406 3.52344 8.60156C3.20052 8.28906 2.92448 7.94271 2.69531 7.5625C2.47135 7.18229 2.29948 6.77604 2.17969 6.34375C2.0599 5.91146 2 5.46354 2 5C2 4.30729 2.13021 3.65885 2.39062 3.05469C2.65104 2.44531 3.00781 1.91406 3.46094 1.46094C3.91406 1.00781 4.44271 0.651042 5.04688 0.390625C5.65625 0.130208 6.30729 0 7 0C7.69271 0 8.34115 0.130208 8.94531 0.390625C9.55469 0.651042 10.0859 1.00781 10.5391 1.46094C10.9922 1.91406 11.349 2.44531 11.6094 3.05469C11.8698 3.65885 12 4.30729 12 5C12 5.46354 11.9375 5.91146 11.8125 6.34375C11.6927 6.77604 11.5182 7.18229 11.2891 7.5625C11.0651 7.94271 10.7917 8.28906 10.4688 8.60156C10.1458 8.91406 9.78125 9.17969 9.375 9.39844C9.90625 9.58594 10.4062 9.83594 10.875 10.1484C11.3438 10.4557 11.7682 10.8151 12.1484 11.2266L11.4609 11.9141ZM3 5C3 5.55208 3.10417 6.07031 3.3125 6.55469C3.52604 7.03906 3.8125 7.46354 4.17188 7.82812C4.53646 8.1875 4.96094 8.47396 5.44531 8.6875C5.92969 8.89583 6.44792 9 7 9C7.55208 9 8.07031 8.89583 8.55469 8.6875C9.03906 8.47396 9.46094 8.1875 9.82031 7.82812C10.1849 7.46354 10.4714 7.03906 10.6797 6.55469C10.8932 6.07031 11 5.55208 11 5C11 4.44792 10.8932 3.92969 10.6797 3.44531C10.4714 2.96094 10.1849 2.53906 9.82031 2.17969C9.46094 1.8151 9.03906 1.52865 8.55469 1.32031C8.07031 1.10677 7.55208 1 7 1C6.44792 1 5.92969 1.10677 5.44531 1.32031C4.96094 1.52865 4.53646 1.8151 4.17188 2.17969C3.8125 2.53906 3.52604 2.96094 3.3125 3.44531C3.10417 3.92969 3 4.44792 3 5Z" fill="#333333"/>
</svg>
