<svg width="16" height="14" viewBox="0 0 16 14" fill="none" xmlns="http://www.w3.org/2000/svg">
<path d="M14.5 5C14.7031 5 14.8958 5.03906 15.0781 5.11719C15.2604 5.19531 15.4193 5.30208 15.5547 5.4375C15.6953 5.57292 15.8047 5.73177 15.8828 5.91406C15.9609 6.09635 16 6.29167 16 6.5C16 6.66667 15.974 6.82552 15.9219 6.97656L13.9219 12.9766C13.8698 13.1276 13.7969 13.2682 13.7031 13.3984C13.6094 13.5234 13.5 13.6302 13.375 13.7188C13.25 13.8073 13.112 13.8776 12.9609 13.9297C12.8151 13.9766 12.6615 14 12.5 14H8.5C7.56771 14 6.66927 13.8203 5.80469 13.4609C5.42969 13.3099 5.05208 13.1953 4.67188 13.1172C4.29688 13.0391 3.90625 13 3.5 13H0V6H3.25781C3.59635 6 3.91406 5.9375 4.21094 5.8125C4.51302 5.6875 4.78385 5.50521 5.02344 5.26562L9.88281 0.414062C10.013 0.283854 10.1432 0.182292 10.2734 0.109375C10.4036 0.0364583 10.5625 0 10.75 0C10.9219 0 11.0833 0.0338542 11.2344 0.101562C11.3854 0.164062 11.5182 0.252604 11.6328 0.367188C11.7474 0.481771 11.8359 0.614583 11.8984 0.765625C11.9661 0.916667 12 1.07812 12 1.25C12 1.67188 11.9531 2.07552 11.8594 2.46094C11.7656 2.84115 11.6276 3.21875 11.4453 3.59375C11.3411 3.81771 11.2526 4.04688 11.1797 4.28125C11.1068 4.51042 11.0573 4.75 11.0312 5H14.5ZM12.5 13C12.6042 13 12.7005 12.9688 12.7891 12.9062C12.8776 12.8438 12.9401 12.7604 12.9766 12.6562C13.0026 12.5833 13.0495 12.4427 13.1172 12.2344C13.1901 12.026 13.276 11.776 13.375 11.4844C13.474 11.1875 13.5833 10.8646 13.7031 10.5156C13.8229 10.1615 13.9427 9.80469 14.0625 9.44531C14.1823 9.08594 14.2969 8.73698 14.4062 8.39844C14.5208 8.05469 14.6224 7.7474 14.7109 7.47656C14.7995 7.20052 14.8698 6.97656 14.9219 6.80469C14.974 6.6276 15 6.52604 15 6.5C15 6.36458 14.9505 6.2474 14.8516 6.14844C14.7526 6.04948 14.6354 6 14.5 6H10C10 5.72396 10.0052 5.46875 10.0156 5.23438C10.0312 4.99479 10.0573 4.76302 10.0938 4.53906C10.1354 4.3151 10.1927 4.09115 10.2656 3.86719C10.3385 3.64323 10.4349 3.40625 10.5547 3.15625C10.7005 2.85417 10.8099 2.54688 10.8828 2.23438C10.9609 1.91667 11 1.58854 11 1.25C11 1.17708 10.9766 1.11719 10.9297 1.07031C10.8828 1.02344 10.8229 1 10.75 1C10.7188 1 10.6901 1.01302 10.6641 1.03906C10.6432 1.0599 10.6224 1.08073 10.6016 1.10156L5.73438 5.97656C5.56771 6.14323 5.38802 6.28906 5.19531 6.41406C5.00781 6.53906 4.80729 6.64583 4.59375 6.73438C4.17708 6.91146 3.73177 7 3.25781 7H1V12H3.5C4.42708 12 5.32552 12.1797 6.19531 12.5391C6.94531 12.8464 7.71354 13 8.5 13H12.5Z" fill="#333333"/>
</svg>
