<?xml version="1.0"?>
<svg xmlns="http://www.w3.org/2000/svg" xmlns:xlink="http://www.w3.org/1999/xlink" version="1.1" viewBox="0 0 192 192" width="32px" height="32px"><g fill="none" fill-rule="nonzero" stroke="none" stroke-width="1" stroke-linecap="butt" stroke-linejoin="miter" stroke-miterlimit="10" stroke-dasharray="" stroke-dashoffset="0" font-family="none" font-weight="none" font-size="none" text-anchor="none" style="mix-blend-mode: normal"><path d="M0,192v-192h192v192z" fill="none"/><g fill="#3f3f3f"><g id="surface1"><path d="M90,12c-16.5,0 -30,13.5 -30,30c0,16.5 13.5,30 30,30c16.5,0 30,-13.5 30,-30c0,-16.5 -13.5,-30 -30,-30zM90,24c10.03126,0 18,7.96876 18,18c0,10.03126 -7.96874,18 -18,18c-10.03124,0 -18,-7.96874 -18,-18c0,-10.03124 7.96876,-18 18,-18zM84,30v24h12v-24zM12,72v78c0,9.89063 8.10937,18 18,18h120c9.89063,0 18,-8.10937 18,-18v-78h-12v78c0,3.375 -2.625,6 -6,6h-120c-3.375,0 -6,-2.625 -6,-6v-78zM84,84v24h-24l30,30l30,-30h-24v-24z"/></g></g></g></svg>
