<?xml version="1.0"?>
<svg xmlns="http://www.w3.org/2000/svg" xmlns:xlink="http://www.w3.org/1999/xlink" version="1.1" viewBox="0 0 172 172" width="32px" height="32px"><g fill="none" fill-rule="nonzero" stroke="none" stroke-width="1" stroke-linecap="butt" stroke-linejoin="miter" stroke-miterlimit="10" stroke-dasharray="" stroke-dashoffset="0" font-family="none" font-weight="none" font-size="none" text-anchor="none" style="mix-blend-mode: normal"><path d="M0,172v-172h172v172z" fill="none"/><g fill="#3f3f3f"><g id="surface1"><path d="M86,16.125c-14.76026,0 -26.875,12.11474 -26.875,26.875v5.375h-26.53906l-0.33594,5.03906l-5.375,96.75l-0.33594,5.71094h118.92188l-0.33594,-5.71094l-5.375,-96.75l-0.33594,-5.03906h-26.53906v-5.375c0,-14.76026 -12.11474,-26.875 -26.875,-26.875zM86,26.875c8.90234,0 16.125,7.22266 16.125,16.125v5.375h-32.25v-5.375c0,-8.90234 7.22266,-16.125 16.125,-16.125zM42.66406,59.125h16.46094v16.125h10.75v-16.125h32.25v16.125h10.75v-16.125h16.46094l4.70313,86h-96.07812z"/></g></g></g></svg>
