<svg fill="#000000" xmlns="http://www.w3.org/2000/svg" viewBox="0 0 32 32" width="32px" height="32px"><path d="M 24 3 L 20 7 L 24 11 L 24 8 L 28 8 L 28 6 L 24 6 L 24 3 z M 12 4 C 7.5935666 4 4 7.5935666 4 12 C 4 16.406433 7.5935666 20 12 20 C 16.406433 20 20 16.406433 20 12 C 20 7.5935666 16.406433 4 12 4 z M 12 6 C 15.325553 6 18 8.6744469 18 12 C 18 15.325553 15.325553 18 12 18 C 8.6744469 18 6 15.325553 6 12 C 6 8.6744469 8.6744469 6 12 6 z M 9.9003906 8.5 L 9.1992188 12.400391 L 12.300781 12.400391 C 12.600781 12.400391 12.900391 12.7 12.900391 13 C 12.900391 13.3 12.600781 13.599609 12.300781 13.599609 L 11.699219 13.599609 C 11.299219 13.499609 11.099609 13.3 11.099609 13 L 9.0996094 13 C 9.0996094 14.5 10.199219 15.599609 11.699219 15.599609 L 12.300781 15.599609 C 13.800781 15.499609 14.900391 14.4 14.900391 13 C 14.900391 11.8 14.1 10.8 13 10.5 L 14 10.5 L 14 8.5 L 9.9003906 8.5 z M 21.798828 14 C 21.656828 14.696 21.437203 15.364 21.158203 16 L 26 16 L 26 26 L 16 26 L 16 21.158203 C 15.364 21.437203 14.696 21.656828 14 21.798828 L 14 28 L 28 28 L 28 14 L 21.798828 14 z M 20 18 A 1.0001 1.0001 0 1 0 20 20 L 22 20 A 1.0001 1.0001 0 1 0 22 18 L 20 18 z M 8 21 L 8 24 L 4 24 L 4 26 L 8 26 L 8 29 L 12 25 L 8 21 z"/></svg>