<?xml version="1.0"?>
<svg xmlns="http://www.w3.org/2000/svg" xmlns:xlink="http://www.w3.org/1999/xlink" version="1.1" viewBox="0 0 172 172" width="32px" height="32px"><g fill="none" fill-rule="nonzero" stroke="none" stroke-width="1" stroke-linecap="butt" stroke-linejoin="miter" stroke-miterlimit="10" stroke-dasharray="" stroke-dashoffset="0" font-family="none" font-weight="none" font-size="none" text-anchor="none" style="mix-blend-mode: normal"><path d="M0,172v-172h172v172z" fill="none"/><g fill="#3f3f3f"><g id="surface1"><path d="M48.375,26.875v75.25h10.75v-64.5h75.25v86c0,6.00489 -4.74511,10.75 -10.75,10.75c-6.00488,0 -10.75,-4.74511 -10.75,-10.75v-16.125h-86v16.125c0,11.8208 9.6792,21.5 21.5,21.5h75.25c11.8208,0 21.5,-9.6792 21.5,-21.5v-96.75zM69.875,59.125v10.75h10.75v-10.75zM91.375,59.125v10.75h32.25v-10.75zM69.875,80.625v10.75h10.75v-10.75zM91.375,80.625v10.75h32.25v-10.75zM37.625,118.25h64.5v5.375c0,3.94727 1.15479,7.55859 3.02344,10.75h-56.77344c-6.00488,0 -10.75,-4.74511 -10.75,-10.75z"/></g></g></g></svg>
